<?xml version="1.0" encoding="UTF-8"?>
<svg id="Calque_2" xmlns="http://www.w3.org/2000/svg" xmlns:xlink="http://www.w3.org/1999/xlink" version="1.1" viewBox="0 0 787.5 305.4">
  <!-- Generator: Adobe Illustrator 30.2.0, SVG Export Plug-In . SVG Version: 2.1.1 Build 45)  -->
  <defs>
    <style>
      .st0, .st1, .st2, .st3, .st4, .st5, .st6 {
        fill: none;
      }

      .st7 {
        fill: url(#Dégradé_sans_nom_9);
      }

      .st8 {
        fill: url(#Dégradé_sans_nom_6);
      }

      .st9 {
        fill: url(#Dégradé_sans_nom_7);
      }

      .st10 {
        fill: url(#Dégradé_sans_nom_4);
      }

      .st11 {
        fill: url(#Dégradé_sans_nom_5);
      }

      .st12 {
        fill: url(#Dégradé_sans_nom_2);
      }

      .st13 {
        fill: url(#Dégradé_sans_nom_3);
      }

      .st14 {
        fill: url(#Dégradé_sans_nom_8);
      }

      .st1, .st2, .st3, .st4, .st5 {
        stroke: #878787;
        stroke-linecap: round;
      }

      .st1, .st2, .st4 {
        stroke-linejoin: round;
        stroke-width: .6px;
      }

      .st2 {
        stroke-dasharray: 0 1.9;
      }

      .st4 {
        stroke-dasharray: 0 1.9;
      }

      .st15 {
        clip-path: url(#clippath-11);
      }

      .st16 {
        clip-path: url(#clippath-10);
      }

      .st17 {
        clip-path: url(#clippath-13);
      }

      .st18 {
        clip-path: url(#clippath-14);
      }

      .st19 {
        clip-path: url(#clippath-12);
      }

      .st5 {
        stroke-width: .4px;
      }

      .st20 {
        clip-path: url(#clippath-1);
      }

      .st21 {
        clip-path: url(#clippath-3);
      }

      .st22 {
        clip-path: url(#clippath-4);
      }

      .st23 {
        clip-path: url(#clippath-2);
      }

      .st24 {
        clip-path: url(#clippath-7);
      }

      .st25 {
        clip-path: url(#clippath-6);
      }

      .st26 {
        clip-path: url(#clippath-9);
      }

      .st27 {
        clip-path: url(#clippath-8);
      }

      .st28 {
        clip-path: url(#clippath-5);
      }

      .st29 {
        fill: #fff;
      }

      .st30 {
        fill: url(#Dégradé_sans_nom);
      }

      .st31 {
        fill: #878787;
      }

      .st32 {
        fill: url(#Dégradé_sans_nom_13);
      }

      .st33 {
        fill: url(#Dégradé_sans_nom_10);
      }

      .st34 {
        fill: url(#Dégradé_sans_nom_12);
      }

      .st35 {
        fill: url(#Dégradé_sans_nom_15);
      }

      .st36 {
        fill: url(#Dégradé_sans_nom_11);
      }

      .st37 {
        fill: url(#Dégradé_sans_nom_14);
      }

      .st38 {
        fill: url(#Dégradé_sans_nom_28);
      }

      .st39 {
        fill: url(#Dégradé_sans_nom_29);
      }

      .st40 {
        fill: url(#Dégradé_sans_nom_26);
      }

      .st41 {
        fill: url(#Dégradé_sans_nom_25);
      }

      .st42 {
        fill: url(#Dégradé_sans_nom_23);
      }

      .st43 {
        fill: url(#Dégradé_sans_nom_20);
      }

      .st44 {
        fill: url(#Dégradé_sans_nom_27);
      }

      .st45 {
        fill: url(#Dégradé_sans_nom_24);
      }

      .st46 {
        fill: url(#Dégradé_sans_nom_22);
      }

      .st47 {
        fill: url(#Dégradé_sans_nom_21);
      }

      .st48 {
        fill: #ededed;
      }

      .st49 {
        fill: #005442;
      }

      .st50 {
        clip-path: url(#clippath);
      }

      .st6 {
        stroke: #fff;
      }
    </style>
    <clipPath id="clippath">
      <rect class="st0" x="49.1" y="31.9" width="125.2" height="20.2" rx="4.8" ry="4.8"/>
    </clipPath>
    <linearGradient id="Dégradé_sans_nom" data-name="Dégradé sans nom" x1="-326.7" y1="32.3" x2="-325.7" y2="32.3" gradientTransform="translate(-577.4 -6926) rotate(-90) scale(21.4)" gradientUnits="userSpaceOnUse">
      <stop offset="0" stop-color="#bea025"/>
      <stop offset="0" stop-color="#bea025"/>
      <stop offset="0" stop-color="#c4a326"/>
      <stop offset="1" stop-color="#fcc138"/>
    </linearGradient>
    <clipPath id="clippath-1">
      <rect class="st0" x="471.2" y="31.9" width="127.1" height="30.6" rx="4.8" ry="4.8"/>
    </clipPath>
    <linearGradient id="Dégradé_sans_nom_2" data-name="Dégradé sans nom 2" x1="-323.2" y1="28.5" x2="-322.2" y2="28.5" gradientTransform="translate(-373.9 -10251.9) rotate(-90) scale(31.9)" gradientUnits="userSpaceOnUse">
      <stop offset="0" stop-color="#63526d"/>
      <stop offset="0" stop-color="#63526d"/>
      <stop offset=".7" stop-color="#977ca7"/>
      <stop offset="1" stop-color="#b090c3"/>
      <stop offset="1" stop-color="#b090c3"/>
    </linearGradient>
    <clipPath id="clippath-2">
      <rect class="st0" x="49.1" y="53" width="125.2" height="20.2" rx="4.8" ry="4.8"/>
    </clipPath>
    <linearGradient id="Dégradé_sans_nom_3" data-name="Dégradé sans nom 3" x1="-326.7" y1="32.3" x2="-325.7" y2="32.3" gradientTransform="translate(-577.5 -6904.8) rotate(-90) scale(21.4)" gradientUnits="userSpaceOnUse">
      <stop offset="0" stop-color="#26944f"/>
      <stop offset="0" stop-color="#26944f"/>
      <stop offset="1" stop-color="#a6c236"/>
    </linearGradient>
    <clipPath id="clippath-3">
      <rect class="st0" x="187.6" y="31.9" width="127.9" height="30.4" rx="4.8" ry="4.8"/>
    </clipPath>
    <linearGradient id="Dégradé_sans_nom_4" data-name="Dégradé sans nom 4" x1="-323.2" y1="28.5" x2="-322.2" y2="28.5" gradientTransform="translate(-653.2 -10192) rotate(-90) scale(31.7)" gradientUnits="userSpaceOnUse">
      <stop offset="0" stop-color="#0084b5"/>
      <stop offset="0" stop-color="#0084b5"/>
      <stop offset=".2" stop-color="#078bbc"/>
      <stop offset=".6" stop-color="#1ca1d2"/>
      <stop offset="1" stop-color="#38beef"/>
    </linearGradient>
    <clipPath id="clippath-4">
      <rect class="st0" x="611.4" y="31.9" width="125.2" height="30.7" rx="4.8" ry="4.8"/>
    </clipPath>
    <linearGradient id="Dégradé_sans_nom_5" data-name="Dégradé sans nom 5" x1="-323.1" y1="28.4" x2="-322.1" y2="28.4" gradientTransform="translate(-237.3 -10289.7) rotate(-90) scale(32)" gradientUnits="userSpaceOnUse">
      <stop offset="0" stop-color="#d20a11"/>
      <stop offset="0" stop-color="#d20a11"/>
      <stop offset=".4" stop-color="#e14915"/>
      <stop offset=".8" stop-color="#ee7b18"/>
      <stop offset="1" stop-color="#f38f1a"/>
      <stop offset="1" stop-color="#f38f1a"/>
    </linearGradient>
    <clipPath id="clippath-5">
      <rect class="st0" x="187.7" y="162.9" width="127.9" height="20.2" rx="4.8" ry="4.8"/>
    </clipPath>
    <linearGradient id="Dégradé_sans_nom_6" data-name="Dégradé sans nom 6" x1="-323.5" y1="32.2" x2="-322.5" y2="32.2" gradientTransform="translate(-436.6 -6725.9) rotate(-90) scale(21.4)" gradientUnits="userSpaceOnUse">
      <stop offset="0" stop-color="#bea025"/>
      <stop offset="0" stop-color="#bea025"/>
      <stop offset="0" stop-color="#c4a326"/>
      <stop offset="1" stop-color="#fcc138"/>
    </linearGradient>
    <clipPath id="clippath-6">
      <rect class="st0" x="471.7" y="162.9" width="126.5" height="20.2" rx="4.8" ry="4.8"/>
    </clipPath>
    <linearGradient id="Dégradé_sans_nom_7" data-name="Dégradé sans nom 7" x1="-323.5" y1="32.2" x2="-322.5" y2="32.2" gradientTransform="translate(-153.8 -6725.9) rotate(-90) scale(21.4)" gradientUnits="userSpaceOnUse">
      <stop offset="0" stop-color="#0084b5"/>
      <stop offset="0" stop-color="#0084b5"/>
      <stop offset=".2" stop-color="#078bbc"/>
      <stop offset=".6" stop-color="#1ca1d2"/>
      <stop offset="1" stop-color="#38beef"/>
    </linearGradient>
    <clipPath id="clippath-7">
      <rect class="st0" x="187.7" y="184.1" width="127.9" height="20.2" rx="4.8" ry="4.8"/>
    </clipPath>
    <linearGradient id="Dégradé_sans_nom_8" data-name="Dégradé sans nom 8" x1="-323.5" y1="32.2" x2="-322.5" y2="32.2" gradientTransform="translate(-436.6 -6704.8) rotate(-90) scale(21.4)" gradientUnits="userSpaceOnUse">
      <stop offset="0" stop-color="#26944f"/>
      <stop offset="0" stop-color="#26944f"/>
      <stop offset="1" stop-color="#a6c236"/>
    </linearGradient>
    <clipPath id="clippath-8">
      <rect class="st0" x="471.7" y="184.1" width="126.5" height="20.2" rx="4.8" ry="4.8"/>
    </clipPath>
    <linearGradient id="Dégradé_sans_nom_9" data-name="Dégradé sans nom 9" x1="-323.5" y1="32.2" x2="-322.5" y2="32.2" gradientTransform="translate(-153.8 -6704.8) rotate(-90) scale(21.4)" gradientUnits="userSpaceOnUse">
      <stop offset="0" stop-color="#26944f"/>
      <stop offset="0" stop-color="#26944f"/>
      <stop offset="1" stop-color="#a6c236"/>
    </linearGradient>
    <clipPath id="clippath-9">
      <rect class="st0" x="187.7" y="205.2" width="127.9" height="20.2" rx="4.8" ry="4.8"/>
    </clipPath>
    <linearGradient id="Dégradé_sans_nom_10" data-name="Dégradé sans nom 10" x1="-323.5" y1="32.2" x2="-322.5" y2="32.2" gradientTransform="translate(-436.7 -6683.6) rotate(-90) scale(21.4)" gradientUnits="userSpaceOnUse">
      <stop offset="0" stop-color="#0084b5"/>
      <stop offset="0" stop-color="#0084b5"/>
      <stop offset=".2" stop-color="#078bbc"/>
      <stop offset=".6" stop-color="#1ca1d2"/>
      <stop offset="1" stop-color="#38beef"/>
    </linearGradient>
    <clipPath id="clippath-10">
      <path class="st0" d="M476.6,205.2h116.9c2.7,0,4.8,2.2,4.8,4.8v10.5c0,2.7-2.2,4.8-4.8,4.8h-116.9c-2.7,0-4.8-2.2-4.8-4.8v-10.5c0-2.7,2.2-4.8,4.8-4.8h0Z"/>
    </clipPath>
    <linearGradient id="Dégradé_sans_nom_11" data-name="Dégradé sans nom 11" x1="-323.1" y1="33.7" x2="-322.1" y2="33.7" gradientTransform="translate(-223.8 -7043.6) rotate(-90) scale(22.5)" gradientUnits="userSpaceOnUse">
      <stop offset="0" stop-color="#63526d"/>
      <stop offset="0" stop-color="#63526d"/>
      <stop offset=".7" stop-color="#977ca7"/>
      <stop offset="1" stop-color="#b090c3"/>
      <stop offset="1" stop-color="#b090c3"/>
    </linearGradient>
    <linearGradient id="Dégradé_sans_nom_12" data-name="Dégradé sans nom 12" x1="-341" y1="40.7" x2="-340" y2="40.7" gradientTransform="translate(-3880.8 -448) rotate(-180) scale(11.5 -11.5)" gradientUnits="userSpaceOnUse">
      <stop offset="0" stop-color="#26944f"/>
      <stop offset="0" stop-color="#26944f"/>
      <stop offset="1" stop-color="#a6c236"/>
    </linearGradient>
    <linearGradient id="Dégradé_sans_nom_13" data-name="Dégradé sans nom 13" x1="-341" y1="40.7" x2="-340" y2="40.7" gradientTransform="translate(-3880.8 -406.1) rotate(-180) scale(11.5 -11.5)" gradientUnits="userSpaceOnUse">
      <stop offset="0" stop-color="#26944f"/>
      <stop offset="0" stop-color="#26944f"/>
      <stop offset="1" stop-color="#a6c236"/>
    </linearGradient>
    <linearGradient id="Dégradé_sans_nom_14" data-name="Dégradé sans nom 14" x1="-341" y1="34.7" x2="-340" y2="34.7" gradientTransform="translate(-3880.7 -278.8) rotate(-180) scale(11.5 -11.5)" gradientUnits="userSpaceOnUse">
      <stop offset="0" stop-color="#26944f"/>
      <stop offset="0" stop-color="#26944f"/>
      <stop offset="1" stop-color="#a6c236"/>
    </linearGradient>
    <linearGradient id="Dégradé_sans_nom_15" data-name="Dégradé sans nom 15" x1="-290.9" y1="34.7" x2="-289.9" y2="34.7" gradientTransform="translate(4090.7 -278.8) scale(11.5)" gradientUnits="userSpaceOnUse">
      <stop offset="0" stop-color="#26944f"/>
      <stop offset="0" stop-color="#26944f"/>
      <stop offset="1" stop-color="#a6c236"/>
    </linearGradient>
    <linearGradient id="Dégradé_sans_nom_20" data-name="Dégradé sans nom 20" x1="-341" y1="34.7" x2="-340" y2="34.7" gradientTransform="translate(-3880.7 -236.9) rotate(-180) scale(11.5 -11.5)" gradientUnits="userSpaceOnUse">
      <stop offset="0" stop-color="#26944f"/>
      <stop offset="0" stop-color="#26944f"/>
      <stop offset="1" stop-color="#a6c236"/>
    </linearGradient>
    <linearGradient id="Dégradé_sans_nom_21" data-name="Dégradé sans nom 21" x1="-290.9" y1="34.7" x2="-289.9" y2="34.7" gradientTransform="translate(4090.7 -236.9) scale(11.5)" gradientUnits="userSpaceOnUse">
      <stop offset="0" stop-color="#26944f"/>
      <stop offset="0" stop-color="#26944f"/>
      <stop offset="1" stop-color="#a6c236"/>
    </linearGradient>
    <linearGradient id="Dégradé_sans_nom_22" data-name="Dégradé sans nom 22" x1="-341" y1="34.7" x2="-340" y2="34.7" gradientTransform="translate(-3880.7 -195) rotate(-180) scale(11.5 -11.5)" gradientUnits="userSpaceOnUse">
      <stop offset="0" stop-color="#26944f"/>
      <stop offset="0" stop-color="#26944f"/>
      <stop offset="1" stop-color="#a6c236"/>
    </linearGradient>
    <linearGradient id="Dégradé_sans_nom_23" data-name="Dégradé sans nom 23" x1="-290.9" y1="34.7" x2="-289.9" y2="34.7" gradientTransform="translate(4090.7 -195) scale(11.5)" gradientUnits="userSpaceOnUse">
      <stop offset="0" stop-color="#26944f"/>
      <stop offset="0" stop-color="#26944f"/>
      <stop offset="1" stop-color="#a6c236"/>
    </linearGradient>
    <linearGradient id="Dégradé_sans_nom_24" data-name="Dégradé sans nom 24" x1="-290.9" y1="40.7" x2="-289.9" y2="40.7" gradientTransform="translate(4090.7 -448) scale(11.5)" gradientUnits="userSpaceOnUse">
      <stop offset="0" stop-color="#26944f"/>
      <stop offset="0" stop-color="#26944f"/>
      <stop offset="1" stop-color="#a6c236"/>
    </linearGradient>
    <linearGradient id="Dégradé_sans_nom_25" data-name="Dégradé sans nom 25" x1="-290.9" y1="40.7" x2="-289.9" y2="40.7" gradientTransform="translate(4090.7 -406.1) scale(11.5)" gradientUnits="userSpaceOnUse">
      <stop offset="0" stop-color="#26944f"/>
      <stop offset="0" stop-color="#26944f"/>
      <stop offset="1" stop-color="#a6c236"/>
    </linearGradient>
    <clipPath id="clippath-11">
      <rect class="st0" x="330.4" y="173.2" width="126.1" height="31.3" rx="4.8" ry="4.8"/>
    </clipPath>
    <linearGradient id="Dégradé_sans_nom_26" data-name="Dégradé sans nom 26" x1="-320.9" y1="28.4" x2="-319.9" y2="28.4" gradientTransform="translate(-532.2 -10261.8) rotate(-90) scale(32.6)" gradientUnits="userSpaceOnUse">
      <stop offset="0" stop-color="#8b0c6d"/>
      <stop offset="0" stop-color="#8b0c6d"/>
      <stop offset="1" stop-color="#ff0084"/>
      <stop offset="1" stop-color="#ff0084"/>
    </linearGradient>
    <clipPath id="clippath-12">
      <rect class="st0" x="49.2" y="162.9" width="125.2" height="41.3" rx="4.8" ry="4.8"/>
    </clipPath>
    <linearGradient id="Dégradé_sans_nom_27" data-name="Dégradé sans nom 27" x1="-319.7" y1="26.5" x2="-318.7" y2="26.5" gradientTransform="translate(-1021.6 -13453.3) rotate(-90) scale(42.7)" gradientUnits="userSpaceOnUse">
      <stop offset="0" stop-color="#004a69"/>
      <stop offset="0" stop-color="#004a69"/>
      <stop offset="0" stop-color="#005175"/>
      <stop offset=".5" stop-color="#0070a7"/>
      <stop offset=".8" stop-color="#0083c6"/>
      <stop offset="1" stop-color="#008bd2"/>
      <stop offset="1" stop-color="#008bd2"/>
    </linearGradient>
    <clipPath id="clippath-13">
      <path class="st0" d="M335.3,31.9h116.5c2.7,0,4.8,2.2,4.8,4.8v20.8c0,2.7-2.2,4.8-4.8,4.8h-116.5c-2.7,0-4.8-2.2-4.8-4.8v-20.8c0-2.7,2.2-4.8,4.8-4.8h0Z"/>
    </clipPath>
    <linearGradient id="Dégradé_sans_nom_28" data-name="Dégradé sans nom 28" x1="-323.2" y1="28.5" x2="-322.2" y2="28.5" gradientTransform="translate(-511.8 -10192) rotate(-90) scale(31.7)" gradientUnits="userSpaceOnUse">
      <stop offset="0" stop-color="#004a69"/>
      <stop offset="0" stop-color="#004a69"/>
      <stop offset="0" stop-color="#005175"/>
      <stop offset=".5" stop-color="#0070a7"/>
      <stop offset=".8" stop-color="#0083c6"/>
      <stop offset="1" stop-color="#008bd2"/>
      <stop offset="1" stop-color="#008bd2"/>
    </linearGradient>
    <clipPath id="clippath-14">
      <rect class="st0" x="611.4" y="163" width="126.1" height="41.3" rx="4.8" ry="4.8"/>
    </clipPath>
    <linearGradient id="Dégradé_sans_nom_29" data-name="Dégradé sans nom 29" x1="-319.7" y1="26.5" x2="-318.7" y2="26.5" gradientTransform="translate(-456.6 -13437.6) rotate(-90) scale(42.7)" gradientUnits="userSpaceOnUse">
      <stop offset="0" stop-color="#004a69"/>
      <stop offset="0" stop-color="#004a69"/>
      <stop offset="0" stop-color="#005175"/>
      <stop offset=".5" stop-color="#0070a7"/>
      <stop offset=".8" stop-color="#0083c6"/>
      <stop offset="1" stop-color="#008bd2"/>
      <stop offset="1" stop-color="#008bd2"/>
    </linearGradient>
  </defs>
  <rect class="st48" x="611.4" y="19.5" width="125.2" height="11.3" rx="4.8" ry="4.8"/>
  <rect class="st6" x="611.4" y="19.5" width="125.2" height="11.3" rx="4.8" ry="4.8"/>
  <rect class="st48" x="611.4" y="63.6" width="125.2" height="21.8" rx="4.8" ry="4.8"/>
  <rect class="st6" x="611.4" y="63.6" width="125.2" height="21.8" rx="4.8" ry="4.8"/>
  <rect class="st48" x="330.4" y="19.5" width="125.2" height="11.3" rx="4.8" ry="4.8"/>
  <rect class="st6" x="330.4" y="19.5" width="125.2" height="11.3" rx="4.8" ry="4.8"/>
  <rect class="st48" x="611.4" y="119.2" width="125.2" height="42.8" rx="4.8" ry="4.8"/>
  <rect class="st6" x="611.4" y="119.2" width="125.2" height="42.8" rx="4.8" ry="4.8"/>
  <path class="st49" d="M89.5.2h3.3l-1.9,7h4.5l-.8,2.8h-7.8L89.5.2Z"/>
  <path class="st49" d="M96.6,6.7c0-.5,0-1,.2-1.6l1.3-4.9h3.3l-1.4,5.1c0,.3-.1.6-.1.8,0,.8.5,1.2,1.3,1.2s.8-.1,1.1-.4c.3-.3.5-.7.7-1.4l1.4-5.3h3.3l-1.6,5.8c-.3,1.3-.8,2.3-1.5,2.9-.9.9-2.3,1.3-3.9,1.3-2.8,0-4.2-1.3-4.2-3.5h0Z"/>
  <path class="st49" d="M109.6.2h3.1l2.2,4.7,1.3-4.7h3.2l-2.6,9.8h-2.9l-2.3-4.9-1.3,4.9h-3.2L109.6.2Z"/>
  <path class="st49" d="M121.3.2h3.5c1.9,0,3.1.5,3.8,1.3.7.7,1.1,1.7,1.1,2.9s-.6,2.8-1.6,3.9c-1.2,1.2-2.9,1.8-5.1,1.8h-4.3L121.3.2ZM124.4,3.1h-.6l-1.1,4.1h.6c1,0,1.8-.3,2.3-.8.4-.4.7-1.1.7-1.7s-.2-.9-.4-1.1c-.3-.3-.8-.5-1.6-.5h0Z"/>
  <path class="st49" d="M132.6.2h3.3l-2.6,9.8h-3.3s2.6-9.8,2.6-9.8Z"/>
  <path class="st49" d="M228,.2h3.2l1.2,3.5,3-3.5h3.6l-2.6,9.8h-3.3l1.3-4.9-3.2,3.5h0l-1.3-3.5-1.3,4.9h-3.2l2.6-9.8h0Z"/>
  <path class="st49" d="M244.3.1h3.2l1.5,9.9h-3.5l-.2-1.3h-3.4l-.9,1.3h-3.6L244.3.1ZM245.2,6.4l-.3-2.4-1.5,2.4h1.8Z"/>
  <path class="st49" d="M254.9,7.2h-.8l-.8,2.8h-3.3l2.6-9.8h3.8c1.8,0,3,.4,3.6,1,.5.5.8,1.3.8,2s-.3,1.8-1,2.4c-.4.4-1,.8-1.8,1l1.4,3.3h-3.5l-1.1-2.8h0ZM255.9,4.9c.6,0,1.1-.2,1.4-.4.2-.2.3-.4.3-.7s0-.4-.2-.5c-.2-.2-.5-.3-1-.3h-1.2l-.5,1.9h1.2Z"/>
  <path class="st49" d="M263.5.2h3.5c1.9,0,3.1.5,3.8,1.3.7.7,1.1,1.7,1.1,2.9s-.6,2.8-1.6,3.9c-1.2,1.2-2.9,1.8-5.1,1.8h-4.3l2.6-9.8h0ZM266.6,3.1h-.5l-1.1,4.1h.6c1,0,1.9-.3,2.4-.8.4-.4.7-1.1.7-1.7s-.1-.9-.4-1.1c-.3-.3-.8-.5-1.6-.5h0Z"/>
  <path class="st49" d="M274.9.2h3.3l-2.6,9.8h-3.3s2.6-9.8,2.6-9.8Z"/>
  <path class="st49" d="M354,.2h3.2l1.2,3.5,3-3.5h3.6l-2.6,9.8h-3.3l1.3-4.9-3.2,3.5h0l-1.3-3.5-1.3,4.9h-3.2l2.6-9.8h0Z"/>
  <path class="st49" d="M366.9.2h8.4l-.7,2.7h-5.1l-.3,1h4.8l-.6,2.4h-4.8l-.3,1.1h5.2l-.7,2.7h-8.4l2.6-9.8h0Z"/>
  <path class="st49" d="M379.4,7.2h-.8l-.8,2.8h-3.3l2.6-9.8h3.8c1.8,0,3,.4,3.6,1,.5.5.8,1.3.8,2s-.3,1.8-1,2.4c-.4.4-1,.8-1.8,1l1.4,3.3h-3.5l-1.1-2.8h0ZM380.4,4.9c.6,0,1.1-.2,1.4-.4.2-.2.3-.4.3-.7s0-.4-.2-.5c-.2-.2-.5-.3-1-.3h-1.2l-.5,1.9h1.2,0Z"/>
  <path class="st49" d="M386.5,5.9c0-1.4.6-3,1.8-4.2C389.3.7,390.8,0,392.8,0s3.6,1.1,4,2.9l-2.9,1.3c-.2-.8-.8-1.2-1.5-1.2s-1.2.3-1.6.7c-.5.5-.8,1.3-.8,2,0,1.1.7,1.7,1.5,1.7s1.4-.4,1.9-1l2.3,1.8c-1,1.3-2.4,2.1-4.5,2.1s-4.6-1.7-4.6-4.3h0Z"/>
  <path class="st49" d="M401.4,7.2h-.8l-.8,2.8h-3.3l2.6-9.8h3.8c1.8,0,3,.4,3.6,1,.5.5.8,1.3.8,2s-.3,1.8-1,2.4c-.4.4-1,.8-1.8,1l1.4,3.3h-3.5l-1.1-2.8h0ZM402.4,4.9c.6,0,1.1-.2,1.4-.4.2-.2.3-.4.3-.7s0-.4-.2-.5c-.2-.2-.5-.3-1-.3h-1.2l-.5,1.9h1.2,0Z"/>
  <path class="st49" d="M410,.2h8.4l-.7,2.7h-5.1l-.3,1h4.8l-.6,2.4h-4.8l-.3,1.1h5.2l-.7,2.7h-8.4l2.6-9.8h0Z"/>
  <path class="st49" d="M420.2.2h3.5c1.9,0,3.1.5,3.8,1.3.7.7,1.1,1.7,1.1,2.9s-.6,2.8-1.6,3.9c-1.2,1.2-2.9,1.8-5.1,1.8h-4.3l2.6-9.8h0ZM423.3,3.1h-.5l-1.1,4.1h.6c1,0,1.9-.3,2.4-.8.4-.4.7-1.1.7-1.7s-.1-.9-.4-1.1c-.3-.3-.8-.5-1.6-.5h0Z"/>
  <path class="st49" d="M431.5.2h3.3l-2.6,9.8h-3.3s2.6-9.8,2.6-9.8Z"/>
  <path class="st49" d="M511,8.4l2.2-1.9c.5.7.9.9,1.4.9s.5,0,.8-.3c.2-.2.4-.6.6-1.4l1.5-5.6h3.2l-1.6,6.1c-.3,1.3-.8,2.2-1.5,2.8-.7.7-1.7,1.1-3.1,1.1s-2.8-.7-3.5-1.8h0Z"/>
  <path class="st49" d="M522.5.2h8.4l-.7,2.7h-5.1l-.3,1h4.8l-.6,2.4h-4.8l-.3,1.1h5.2l-.7,2.7h-8.4l2.6-9.8h0Z"/>
  <path class="st49" d="M531.1,6.7c0-.5,0-1,.2-1.6l1.3-4.9h3.3l-1.4,5.1c0,.3-.1.6-.1.8,0,.8.5,1.2,1.3,1.2s.8-.1,1-.4c.3-.3.5-.7.7-1.4l1.4-5.3h3.3l-1.5,5.8c-.3,1.3-.8,2.3-1.5,2.9-.9.9-2.3,1.3-3.9,1.3-2.8,0-4.2-1.3-4.2-3.5h0Z"/>
  <path class="st49" d="M544.1.2h3.5c1.9,0,3.1.5,3.8,1.3.7.7,1.1,1.7,1.1,2.9s-.6,2.8-1.6,3.9c-1.2,1.2-2.9,1.8-5.1,1.8h-4.3l2.6-9.8h0ZM547.2,3.1h-.5l-1.1,4.1h.6c1,0,1.8-.3,2.3-.8.4-.4.7-1.1.7-1.7s-.2-.9-.4-1.1c-.3-.3-.8-.5-1.6-.5h0Z"/>
  <path class="st49" d="M555.4.2h3.3l-2.6,9.8h-3.3s2.6-9.8,2.6-9.8Z"/>
  <path class="st49" d="M634.3.2h3.6l.4,5.5,3.4-5.5h3.7l-6.6,9.9h-3.1l-1.3-9.9h0Z"/>
  <path class="st49" d="M646.5.2h8.4l-.7,2.7h-5.1l-.3,1h4.8l-.6,2.4h-4.8l-.3,1.1h5.2l-.7,2.7h-8.4l2.6-9.8h0Z"/>
  <path class="st49" d="M656.8.2h3.1l2.2,4.7,1.3-4.7h3.2l-2.6,9.8h-2.9l-2.3-4.9-1.3,4.9h-3.2s2.6-9.8,2.6-9.8Z"/>
  <path class="st49" d="M668.5.2h3.5c1.9,0,3.1.5,3.8,1.3.7.7,1.1,1.7,1.1,2.9s-.6,2.8-1.6,3.9c-1.2,1.2-2.9,1.8-5.1,1.8h-4.3l2.6-9.8h0ZM671.5,3.1h-.5l-1.1,4.1h.6c1,0,1.8-.3,2.3-.8.4-.4.7-1.1.7-1.7s-.2-.9-.4-1.1c-.3-.3-.8-.5-1.6-.5h0Z"/>
  <path class="st49" d="M682,7.2h-.8l-.8,2.8h-3.3l2.6-9.8h3.8c1.8,0,3,.4,3.6,1,.5.5.8,1.3.8,2s-.3,1.8-1,2.4c-.4.4-1,.8-1.8,1l1.4,3.3h-3.5l-1.1-2.8h0ZM683,4.9c.6,0,1.1-.2,1.4-.4.2-.2.3-.4.3-.7s0-.4-.2-.5c-.2-.2-.5-.3-1-.3h-1.2l-.5,1.9h1.2,0Z"/>
  <path class="st49" d="M690.6.2h8.4l-.7,2.7h-5.1l-.3,1h4.8l-.6,2.4h-4.8l-.3,1.1h5.2l-.7,2.7h-8.4l2.6-9.8h0Z"/>
  <path class="st49" d="M700.8.2h3.5c1.9,0,3.1.5,3.8,1.3.7.7,1.1,1.7,1.1,2.9s-.6,2.8-1.6,3.9c-1.2,1.2-2.9,1.8-5.1,1.8h-4.3l2.6-9.8h0ZM703.9,3.1h-.5l-1.1,4.1h.6c1,0,1.8-.3,2.3-.8.4-.4.7-1.1.7-1.7s-.2-.9-.4-1.1c-.3-.3-.8-.5-1.6-.5h0Z"/>
  <path class="st49" d="M712.1.2h3.3l-2.6,9.8h-3.3s2.6-9.8,2.6-9.8Z"/>
  <g class="st50">
    <rect class="st30" x="49.1" y="31.9" width="125.2" height="20.2"/>
  </g>
  <path class="st29" d="M63.7,42.8c0-1,.4-2.1,1.3-3,.7-.7,1.8-1.2,3.2-1.2s2.6.8,2.9,2l-2.1.9c-.2-.6-.6-.8-1.1-.8s-.9.2-1.2.5c-.4.4-.6.9-.6,1.4,0,.8.5,1.2,1.1,1.2s1-.3,1.4-.7l1.6,1.3c-.7.9-1.7,1.5-3.2,1.5s-3.3-1.2-3.3-3.1Z"/>
  <path class="st29" d="M71.2,43.5h2.3l-.6,2.3h-2.3l.6-2.3Z"/>
  <path class="st29" d="M78.4,38.7h2.3l1.1,7h-2.5v-.9h-2.6l-.6.9h-2.6l4.8-7ZM79,43.2l-.2-1.7-1.1,1.7h1.3Z"/>
  <path class="st29" d="M82.9,43.5h2.3l-.6,2.3h-2.3l.6-2.3Z"/>
  <path class="st29" d="M87.7,38.8h5.9l-.5,2h-3.5l-.2.9h3.3l-.5,1.8h-3.3l-.6,2.3h-2.3s1.9-7,1.9-7Z"/>
  <path class="st29" d="M92.9,43.5h2.3l-.6,2.3h-2.3l.6-2.3Z"/>
  <path class="st29" d="M102,40.6l-1.2.3v-1s1.8-.5,1.8-.5h.8l-1.7,6.3h-1.1l1.4-5.2h0Z"/>
  <path class="st29" d="M103.8,44.9l3.3-2.4c.6-.5,1-.8,1-1.3s-.4-.8-1-.8-1.1.3-1.6.8l-.7-.7c.6-.7,1.4-1.1,2.3-1.1s2.1.7,2.1,1.7-.4,1.3-1.4,2.1l-2.3,1.7h2.9l-.3,1h-4.6s.2-.9.2-.9Z"/>
  <path class="st29" d="M111.6,39.5h1.1l-.7,2.6h3l.7-2.6h1.1l-1.7,6.3h-1.1l.7-2.7h-3l-.7,2.7h-1.1l1.7-6.3Z"/>
  <path class="st29" d="M119.2,40.6l-1.2.3v-1s1.8-.5,1.8-.5h.8l-1.7,6.3h-1.1l1.4-5.2h0Z"/>
  <path class="st29" d="M121.1,44.7l.8-.7c.4.5.9.8,1.6.8s1.5-.6,1.5-1.2-.5-1-1.3-1-.7.1-1,.3l-.6-.5,1-3h3.7l-.3,1h-2.7l-.5,1.5c.2,0,.6-.1.8-.1,1.2,0,2,.7,2,1.8s-.2,1.1-.7,1.5c-.5.5-1.2.8-2.1.8s-1.8-.5-2.3-1.1h0Z"/>
  <path class="st29" d="M127.8,42.5h2.7l-.3,1.1h-2.7s.3-1.1.3-1.1Z"/>
  <path class="st29" d="M133.1,40.6l-1.2.3v-1s1.8-.5,1.8-.5h.8l-1.7,6.3h-1.1l1.4-5.2h0Z"/>
  <path class="st29" d="M134.9,44.9l3.3-2.4c.6-.5,1-.8,1-1.3s-.4-.8-1-.8-1.1.3-1.6.8l-.7-.7c.6-.7,1.4-1.1,2.3-1.1s2.1.7,2.1,1.7-.4,1.3-1.4,2.1l-2.3,1.7h2.9l-.3,1h-4.6l.2-.9h0Z"/>
  <path class="st29" d="M142.7,39.5h1.1l-.7,2.6h3l.7-2.6h1.1l-1.7,6.3h-1.1l.7-2.7h-3l-.7,2.7h-1.1l1.7-6.3Z"/>
  <path class="st29" d="M151.5,44.4h-3.1v-.8c-.1,0,4.4-4.1,4.4-4.1h1.1l-1.1,4h.9l-.2.9h-.9l-.4,1.4h-1.1l.4-1.4ZM151.7,43.5l.7-2.5-2.7,2.5h2,0Z"/>
  <path class="st29" d="M154.4,44.7l.8-.7c.4.5.9.8,1.6.8s1.5-.6,1.5-1.2-.5-1-1.3-1-.7.1-1,.3l-.6-.5,1-3h3.7l-.3,1h-2.7l-.5,1.5c.2,0,.6-.1.8-.1,1.2,0,2,.7,2,1.8s-.2,1.1-.7,1.5c-.5.5-1.2.8-2.1.8s-1.9-.5-2.3-1.1h0Z"/>
  <rect class="st6" x="49.1" y="31.9" width="125.2" height="20.2" rx="4.8" ry="4.8"/>
  <g class="st20">
    <rect class="st12" x="471.2" y="31.9" width="127.1" height="30.6"/>
  </g>
  <path class="st29" d="M517.3,38.6h2.3c1.3,0,2.1.2,2.6.8.4.4.5.9.5,1.4,0,.8-.2,1.4-.8,2-.6.6-1.5,1-2.8,1h-1l-.5,1.9h-2.3l1.9-7h0ZM519.6,40.5h-.4l-.4,1.6h.4c.5,0,.8-.1,1.1-.3.2-.2.2-.4.2-.6s0-.3-.2-.4c-.2-.2-.4-.2-.7-.2Z"/>
  <path class="st29" d="M524.3,38.6h2.3l-1.9,7h-2.3l1.9-7Z"/>
  <path class="st29" d="M527.7,38.6h2.3l-1.3,5h3.2l-.5,2h-5.5l1.9-7Z"/>
  <path class="st29" d="M536.5,38.5h2.3l1.1,7h-2.5v-.9h-2.6l-.6.9h-2.5l4.8-7h0ZM537.1,43l-.2-1.7-1.1,1.7h1.3Z"/>
  <path class="st29" d="M542.6,40.6h-2.1l.5-2h6.5l-.5,2h-2.1l-1.3,5h-2.3l1.3-5Z"/>
  <path class="st29" d="M548.3,38.6h6l-.5,1.9h-3.7l-.2.7h3.4l-.5,1.7h-3.4l-.2.8h3.7l-.5,1.9h-6l1.9-7h0Z"/>
  <path class="st29" d="M506.9,51.2l-1.2.3v-1s1.8-.5,1.8-.5h.8l-1.7,6.3h-1.1l1.4-5.2h0Z"/>
  <path class="st29" d="M508.5,55.5l3.3-2.4c.6-.5,1-.8,1-1.3s-.4-.8-1-.8-1.1.3-1.6.8l-.7-.7c.6-.7,1.4-1.1,2.3-1.1s2.1.7,2.1,1.7-.4,1.3-1.4,2.1l-2.3,1.7h2.9l-.3,1h-4.6l.2-.9h0Z"/>
  <path class="st29" d="M516.1,50.1h1.1l-.7,2.6h3l.7-2.6h1.1l-1.7,6.3h-1.1l.7-2.7h-3l-.7,2.7h-1.1l1.7-6.3Z"/>
  <path class="st29" d="M523.6,51.2l-1.2.3v-1s1.8-.5,1.8-.5h.8l-1.7,6.3h-1.1l1.4-5.2h0Z"/>
  <path class="st29" d="M525.2,55.4l.8-.7c.4.5.9.8,1.6.8s1.5-.6,1.5-1.2-.5-1-1.3-1-.7.1-1,.3l-.6-.5,1-3h3.7l-.3,1h-2.7l-.5,1.5c.2,0,.5-.1.8-.1,1.2,0,2,.7,2,1.8s-.2,1.1-.7,1.5c-.5.5-1.2.8-2.1.8s-1.8-.5-2.3-1.1h0Z"/>
  <path class="st29" d="M531.8,53.1h2.7l-.3,1.1h-2.7l.3-1.1Z"/>
  <path class="st29" d="M536.9,51.2l-1.2.3v-1s1.8-.5,1.8-.5h.8l-1.7,6.3h-1.1l1.4-5.2h0Z"/>
  <path class="st29" d="M538.5,55.3l.8-.6c.3.5.8.8,1.5.8s1.4-.5,1.4-1.1-.5-.9-1.4-.9h-.3v-.7c0,0,2.1-1.8,2.1-1.8h-2.7l.3-1h4.2l-.2.8-2.2,1.8c.9.1,1.5.6,1.5,1.6s-.2,1-.6,1.4c-.5.5-1.2.8-2,.8s-1.9-.5-2.3-1.2h0Z"/>
  <path class="st29" d="M546.2,50.1h1.1l-.7,2.6h3l.7-2.6h1.1l-1.7,6.3h-1.1l.7-2.7h-3l-.7,2.7h-1.1l1.7-6.3Z"/>
  <path class="st29" d="M557.7,52.5c0,1.1-.4,2.3-1.2,3.1-.5.5-1.3.9-2.1.9-1.5,0-2.4-1-2.4-2.5s.4-2.3,1.2-3.1c.5-.5,1.3-.9,2.1-.9,1.5,0,2.3,1,2.3,2.5ZM555.6,55c.6-.6,1-1.6,1-2.4s-.5-1.5-1.3-1.5-.8.2-1.2.5c-.6.6-1,1.6-1,2.4s.5,1.5,1.3,1.5.8-.2,1.2-.5Z"/>
  <path class="st29" d="M564.5,52.5c0,1.1-.4,2.3-1.2,3.1-.5.5-1.3.9-2.1.9-1.5,0-2.4-1-2.4-2.5s.4-2.3,1.2-3.1c.5-.5,1.3-.9,2.1-.9,1.5,0,2.3,1,2.3,2.5ZM562.4,55c.6-.6,1-1.6,1-2.4s-.5-1.5-1.3-1.5-.8.2-1.2.5c-.6.6-1,1.6-1,2.4s.5,1.5,1.3,1.5.8-.2,1.2-.5Z"/>
  <rect class="st6" x="471.2" y="31.9" width="127.1" height="30.6" rx="4.8" ry="4.8"/>
  <g class="st23">
    <rect class="st13" x="49.1" y="53" width="125.2" height="20.2"/>
  </g>
  <path class="st29" d="M59.4,65.3l4-3.4h-3l.5-1.9h6.2l-.4,1.6-4,3.4h3.1l-.5,1.9h-6.3s.4-1.6.4-1.6Z"/>
  <path class="st29" d="M67.1,64.6c0-.4,0-.8.2-1.1l.9-3.5h2.4l-1,3.6c0,.2,0,.4,0,.6,0,.6.3.9,1,.9s.6,0,.8-.3.3-.5.5-1l1-3.8h2.4l-1.1,4.1c-.2.9-.6,1.6-1.1,2.1s-1.7.9-2.8.9c-2,0-3-.9-3-2.5Z"/>
  <path class="st29" d="M76.3,59.9h2.3l.8,2.5,2.2-2.5h2.6l-1.9,7h-2.3l.9-3.5-2.3,2.5h0l-.9-2.5-.9,3.5h-2.3s1.9-7,1.9-7Z"/>
  <path class="st29" d="M85.5,59.9h3.1c2.2,0,2.7.8,2.7,1.7s-.6,1.6-1.6,1.8c.7.2,1.1.7,1.1,1.4,0,1.2-.9,2.1-3.3,2.1h-3.8l1.9-7ZM87.5,65.2c.6,0,.9-.2.9-.6s-.2-.4-.8-.4h-1l-.3,1h1.1ZM88.1,62.7c.6,0,.9-.3.9-.6s-.2-.4-.7-.4h-1l-.3,1h1.1Z"/>
  <path class="st29" d="M95.5,59.9h2.3l1.1,7h-2.5v-.9h-2.6l-.6.9h-2.6s4.8-7,4.8-7ZM96.2,64.3l-.2-1.7-1.1,1.7h1.3Z"/>
  <path class="st29" d="M105.8,61.8l-1.2.3v-1s1.8-.5,1.8-.5h.8l-1.7,6.4h-1.1l1.4-5.2h0Z"/>
  <path class="st29" d="M107.7,66l3.3-2.4c.6-.5,1-.8,1-1.3s-.4-.8-1-.8-1.1.3-1.6.8l-.7-.7c.6-.7,1.4-1.1,2.3-1.1s2.1.7,2.1,1.7-.4,1.3-1.4,2.1l-2.3,1.7h2.9l-.3,1h-4.6s.2-.9.2-.9Z"/>
  <path class="st29" d="M115.4,60.6h1.1l-.7,2.6h3l.7-2.6h1.1l-1.7,6.3h-1.1l.7-2.7h-3l-.7,2.7h-1.1l1.7-6.3Z"/>
  <path class="st29" d="M124.2,65.5h-3.1v-.8c-.1,0,4.4-4.1,4.4-4.1h1.1l-1.1,4h.9l-.2.9h-.9l-.4,1.4h-1.1l.4-1.4ZM124.4,64.6l.7-2.5-2.7,2.5h2,0Z"/>
  <path class="st29" d="M127.1,65.9l.8-.7c.4.5.9.8,1.6.8s1.5-.6,1.5-1.2-.5-1-1.3-1-.7.1-1,.3l-.6-.5,1-3h3.7l-.3,1h-2.7l-.5,1.5c.2,0,.6-.1.8-.1,1.2,0,2,.7,2,1.8s-.2,1.1-.7,1.5c-.5.5-1.2.8-2.1.8s-1.8-.5-2.3-1.1h0Z"/>
  <path class="st29" d="M133.8,63.6h2.7l-.3,1.1h-2.7l.3-1.1Z"/>
  <path class="st29" d="M139.2,61.8l-1.2.3v-1s1.8-.5,1.8-.5h.8l-1.7,6.4h-1.1l1.4-5.2h0Z"/>
  <path class="st29" d="M140.9,65.8l.8-.6c.3.5.8.8,1.5.8s1.4-.5,1.4-1.1-.5-.9-1.4-.9h-.3v-.7c0,0,2.1-1.8,2.1-1.8h-2.7l.3-1h4.2l-.2.8-2.2,1.8c.9.1,1.5.6,1.5,1.6s-.2,1-.6,1.4c-.5.5-1.2.8-2,.8s-1.9-.5-2.3-1.2h0Z"/>
  <path class="st29" d="M148.8,60.6h1.1l-.7,2.6h3l.7-2.6h1.1l-1.7,6.3h-1.1l.7-2.7h-3l-.7,2.7h-1.1l1.7-6.3Z"/>
  <path class="st29" d="M156.4,61.8l-1.2.3v-1s1.8-.5,1.8-.5h.8l-1.7,6.4h-1.1l1.4-5.2h0Z"/>
  <path class="st29" d="M158.2,65.9l.8-.7c.4.5.9.8,1.6.8s1.5-.6,1.5-1.2-.5-1-1.3-1-.7.1-1,.3l-.6-.5,1-3h3.7l-.3,1h-2.7l-.5,1.5c.2,0,.6-.1.8-.1,1.2,0,2,.7,2,1.8s-.2,1.1-.7,1.5c-.5.5-1.2.8-2.1.8s-1.9-.5-2.3-1.1h0Z"/>
  <rect class="st6" x="49.1" y="53" width="125.2" height="20.2" rx="4.8" ry="4.8"/>
  <g class="st21">
    <rect class="st10" x="187.6" y="31.9" width="127.9" height="30.4"/>
  </g>
  <path class="st29" d="M220.2,38.9h3.1c2.1,0,2.7.8,2.7,1.7s-.6,1.6-1.6,1.8c.7.2,1.1.7,1.1,1.4,0,1.2-.9,2.1-3.3,2.1h-3.8l1.9-7h0ZM222.2,44.1c.6,0,.9-.2.9-.6s-.2-.4-.8-.4h-1l-.3,1h1.1,0ZM222.8,41.7c.6,0,.9-.3.9-.6s-.2-.4-.7-.4h-1l-.3,1h1.1Z"/>
  <path class="st29" d="M234.3,41.9c0,1.1-.5,2.2-1.2,2.9-.7.7-1.8,1.2-2.9,1.2-2.1,0-3.5-1.4-3.5-3.2s.5-2.2,1.2-2.9c.7-.7,1.8-1.2,2.9-1.2,2.1,0,3.5,1.4,3.5,3.2ZM231.3,43.5c.4-.4.6-.9.6-1.4,0-.7-.4-1.3-1.3-1.3s-.8.2-1,.4c-.4.4-.6.9-.6,1.4,0,.7.4,1.3,1.3,1.3s.8-.2,1-.4Z"/>
  <path class="st29" d="M236.3,38.9h2.5c1.4,0,2.2.4,2.7.9.5.5.8,1.2.8,2s-.4,2-1.1,2.8c-.8.8-2.1,1.3-3.7,1.3h-3l1.9-7h0ZM238.4,41h-.4l-.8,2.9h.4c.7,0,1.3-.2,1.7-.6.3-.3.5-.8.5-1.2s-.1-.6-.3-.8c-.2-.2-.6-.3-1.1-.4Z"/>
  <path class="st29" d="M244.1,43.2l-1.4-4.3h2.5l.6,2.3,1.8-2.3h2.8l-4,4.6-.6,2.4h-2.3l.7-2.7h0Z"/>
  <path class="st29" d="M254,38.9h2.3c1.3,0,2.1.2,2.6.8.4.4.5.9.5,1.4,0,.8-.2,1.4-.8,2-.6.6-1.5,1-2.8,1h-1l-.5,1.9h-2.3s1.9-7,1.9-7ZM256.3,40.8h-.4l-.4,1.6h.4c.5,0,.8-.1,1.1-.3.2-.2.2-.4.2-.6s0-.3-.2-.4c-.2-.2-.4-.2-.7-.2h0Z"/>
  <path class="st29" d="M260,43.5c0-.4,0-.8.1-1.1l.9-3.5h2.4l-1,3.6c0,.2,0,.4,0,.5,0,.6.3.9,1,.9s.6,0,.8-.3c.2-.2.4-.5.5-1l1-3.8h2.4l-1.1,4.1c-.2.9-.6,1.6-1.1,2.1-.7.7-1.7.9-2.8.9-2,0-3-.9-3-2.5h0Z"/>
  <path class="st29" d="M269.2,38.9h2.3l.8,2.5,2.2-2.5h2.6l-1.9,7h-2.3l.9-3.5-2.3,2.5h0l-.9-2.5-.9,3.5h-2.3l1.9-7Z"/>
  <path class="st29" d="M278.4,38.9h2.4c1.3,0,2.1.2,2.6.8.4.4.5.9.5,1.4,0,.8-.2,1.4-.8,2-.6.6-1.5,1-2.8,1h-1l-.5,1.9h-2.3s1.9-7,1.9-7ZM280.6,40.8h-.4l-.4,1.6h.4c.5,0,.8-.1,1.1-.3.2-.2.2-.4.2-.6s0-.3-.2-.4c-.2-.2-.4-.2-.7-.2Z"/>
  <path class="st29" d="M222.4,50.8l-1.2.3v-1s1.8-.5,1.8-.5h.8l-1.7,6.3h-1.1l1.4-5.2h0Z"/>
  <path class="st29" d="M224.2,55l3.3-2.4c.6-.5,1-.8,1-1.3s-.4-.8-1-.8-1.1.3-1.6.8l-.7-.7c.6-.7,1.4-1.1,2.3-1.1s2.1.7,2.1,1.7-.4,1.3-1.4,2.1l-2.3,1.7h2.9l-.3,1h-4.6l.2-.9h0Z"/>
  <path class="st29" d="M232,49.6h1.1l-.7,2.6h3l.7-2.6h1.1l-1.7,6.3h-1.1l.7-2.7h-3l-.7,2.7h-1.1l1.7-6.3Z"/>
  <path class="st29" d="M239.6,50.8l-1.2.3v-1s1.8-.5,1.8-.5h.8l-1.7,6.3h-1.1l1.4-5.2h0Z"/>
  <path class="st29" d="M241.5,54.9l.8-.7c.4.5.9.8,1.6.8s1.5-.6,1.5-1.2-.5-1-1.3-1-.7.1-1,.3l-.6-.5,1-3h3.7l-.3,1h-2.7l-.5,1.5c.2,0,.6-.1.8-.1,1.2,0,2,.7,2,1.8s-.2,1.1-.7,1.5c-.5.5-1.2.8-2.1.8s-1.9-.5-2.3-1.1h0Z"/>
  <path class="st29" d="M248.1,52.6h2.7l-.3,1.1h-2.7l.3-1.1Z"/>
  <path class="st29" d="M253.5,50.8l-1.2.3v-1s1.8-.5,1.8-.5h.8l-1.7,6.3h-1.1l1.4-5.2h0Z"/>
  <path class="st29" d="M255.3,54.8l.8-.6c.3.5.8.8,1.5.8s1.4-.5,1.4-1.1-.5-.9-1.4-.9h-.3v-.7c0,0,2.1-1.8,2.1-1.8h-2.7l.3-1h4.2l-.2.8-2.2,1.8c.9.1,1.5.6,1.5,1.6s-.2,1-.6,1.4c-.5.5-1.2.8-2,.8s-1.9-.5-2.3-1.2h0Z"/>
  <path class="st29" d="M263.1,49.6h1.1l-.7,2.6h3l.7-2.6h1.1l-1.7,6.3h-1.1l.7-2.7h-3l-.7,2.7h-1.1l1.7-6.3Z"/>
  <path class="st29" d="M274.8,52c0,1.1-.4,2.3-1.2,3.1-.5.5-1.3.9-2.1.9-1.5,0-2.4-1-2.4-2.5s.4-2.3,1.2-3.1c.5-.5,1.3-.9,2.1-.9,1.5,0,2.4,1,2.4,2.5h0ZM272.7,54.5c.6-.6,1-1.6,1-2.4s-.5-1.5-1.3-1.5-.8.2-1.2.5c-.6.6-1,1.6-1,2.4s.5,1.5,1.3,1.5.8-.2,1.2-.5Z"/>
  <path class="st29" d="M281.8,52c0,1.1-.4,2.3-1.2,3.1-.5.5-1.3.9-2.1.9-1.5,0-2.4-1-2.4-2.5s.4-2.3,1.2-3.1c.5-.5,1.3-.9,2.1-.9,1.5,0,2.4,1,2.4,2.5h0ZM279.7,54.5c.6-.6,1-1.6,1-2.4s-.5-1.5-1.3-1.5-.8.2-1.2.5c-.6.6-1,1.6-1,2.4s.5,1.5,1.3,1.5.8-.2,1.2-.5Z"/>
  <rect class="st6" x="187.6" y="31.9" width="127.9" height="30.4" rx="4.8" ry="4.8"/>
  <rect class="st48" x="49.1" y="74.2" width="125.2" height="11.2" rx="4.8" ry="4.8"/>
  <rect class="st6" x="49.1" y="74.2" width="125.2" height="11.2" rx="4.8" ry="4.8"/>
  <rect class="st48" x="470.7" y="63.6" width="127.5" height="21.8" rx="4.8" ry="4.8"/>
  <rect class="st6" x="470.7" y="63.6" width="127.5" height="21.8" rx="4.8" ry="4.8"/>
  <rect class="st48" x="187.6" y="63.6" width="127.9" height="21.8" rx="4.8" ry="4.8"/>
  <rect class="st6" x="187.6" y="63.6" width="127.9" height="21.8" rx="4.8" ry="4.8"/>
  <rect class="st48" x="330.3" y="63.6" width="126.1" height="21.8" rx="4.8" ry="4.8"/>
  <rect class="st6" x="330.3" y="63.6" width="126.1" height="21.8" rx="4.8" ry="4.8"/>
  <rect class="st48" x="187.6" y="19.5" width="127.9" height="11.2" rx="4.8" ry="4.8"/>
  <rect class="st6" x="187.6" y="19.5" width="127.9" height="11.2" rx="4.8" ry="4.8"/>
  <rect class="st48" x="49.1" y="19.5" width="125.2" height="11.2" rx="4.8" ry="4.8"/>
  <rect class="st6" x="49.1" y="19.5" width="125.2" height="11.2" rx="4.8" ry="4.8"/>
  <rect class="st48" x="470.7" y="19.5" width="127.5" height="11.2" rx="4.8" ry="4.8"/>
  <rect class="st6" x="470.7" y="19.5" width="127.5" height="11.2" rx="4.8" ry="4.8"/>
  <line class="st2" x1="180.9" y1="22.5" x2="180.9" y2="84.7"/>
  <path class="st1" d="M180.9,85.6h0M180.9,20.7h0"/>
  <line class="st2" x1="463.5" y1="22.5" x2="463.5" y2="84.7"/>
  <path class="st1" d="M463.5,85.6h0M463.5,20.7h0"/>
  <line class="st2" x1="604.9" y1="22.5" x2="604.9" y2="84.7"/>
  <path class="st1" d="M604.9,85.6h0M604.9,20.7h0"/>
  <line class="st2" x1="322.2" y1="22.5" x2="322.2" y2="84.7"/>
  <path class="st1" d="M322.2,85.6h0M322.2,20.7h0"/>
  <line class="st4" x1="181" y1="120.8" x2="181" y2="234.1"/>
  <path class="st1" d="M181,235.1h0M181,119h0"/>
  <line class="st4" x1="463.6" y1="120.8" x2="463.6" y2="234.1"/>
  <path class="st1" d="M463.6,235.1h0M463.6,119h0"/>
  <line class="st4" x1="604.9" y1="120.8" x2="604.9" y2="234.1"/>
  <path class="st1" d="M604.9,235.1h0M604.9,119h0"/>
  <line class="st4" x1="322.3" y1="120.8" x2="322.3" y2="234.1"/>
  <path class="st1" d="M322.3,235.1h0M322.3,119h0"/>
  <g class="st22">
    <rect class="st11" x="611.4" y="31.9" width="125.2" height="30.7"/>
  </g>
  <path class="st29" d="M638,44.5l1.3-1.6c.8.7,1.6,1,2.4,1s.5-.1.5-.3-.1-.3-1.2-.7c-1.3-.5-1.9-.9-1.9-2s.2-1.1.7-1.5c.5-.5,1.4-.9,2.5-.9s2.4.4,3.1,1l-1.3,1.6c-.5-.4-1.3-.8-2-.8s-.5,0-.5.3.2.2,1.1.6c1.2.4,2,.9,2,2s-.2,1.2-.7,1.6c-.5.5-1.4.9-2.5.9s-2.6-.5-3.5-1.3h0Z"/>
  <path class="st29" d="M647.9,40.6h-2.1l.5-2h6.5l-.5,2h-2.1l-1.3,5h-2.3l1.3-5Z"/>
  <path class="st29" d="M655.4,43.7h-.6l-.5,2h-2.3l1.9-7h2.7c1.3,0,2.1.3,2.6.8.4.4.5.9.5,1.5s-.2,1.2-.7,1.7c-.3.3-.7.5-1.3.7l1,2.3h-2.5l-.8-2h0ZM656.1,42c.5,0,.8-.1,1-.3.1-.1.2-.3.2-.5s0-.3-.2-.4c-.1-.1-.4-.2-.7-.2h-.8l-.4,1.4h.9Z"/>
  <path class="st29" d="M661.5,38.7h6l-.5,1.9h-3.7l-.2.7h3.4l-.5,1.7h-3.4l-.2.8h3.7l-.5,1.9h-6l1.9-7h0Z"/>
  <path class="st29" d="M669.9,40.6h-2.1l.5-2h6.5l-.5,2h-2.1l-1.3,5h-2.3l1.3-5Z"/>
  <path class="st29" d="M674.7,42.7c0-1,.4-2.1,1.3-3,.7-.7,1.8-1.2,3.2-1.2s2.6.8,2.9,2l-2.1.9c-.2-.6-.6-.8-1.1-.8s-.9.2-1.2.5c-.4.4-.6.9-.6,1.4,0,.8.5,1.2,1.1,1.2s1-.3,1.4-.7l1.6,1.3c-.7.9-1.7,1.5-3.2,1.5s-3.3-1.2-3.3-3.1h0Z"/>
  <path class="st29" d="M683.6,38.7h2.3l-.7,2.5h2.1l.7-2.5h2.3l-1.9,7h-2.3l.7-2.5h-2.1l-.7,2.5h-2.3l1.9-7Z"/>
  <path class="st29" d="M691.7,38.7h2.3l-1.9,7h-2.3l1.9-7Z"/>
  <path class="st29" d="M695.4,38.7h2.2l1.6,3.3.9-3.3h2.3l-1.9,7h-2.1l-1.7-3.5-.9,3.5h-2.3l1.9-7h0Z"/>
  <path class="st29" d="M702.4,42.7c0-1.1.4-2.1,1.2-2.9.8-.8,2-1.3,3.5-1.3s2.5.6,2.9,1.2l-1.5,1.5c-.4-.4-1-.6-1.6-.6s-1.2.2-1.5.6c-.4.4-.6.9-.6,1.5,0,.9.6,1.3,1.4,1.3s.5,0,.6-.1l.2-.8h-1.2l.4-1.5h3.4l-1,3.6c-.7.4-1.7.7-2.7.7-1.7,0-3.5-.9-3.5-3.1h0Z"/>
  <path class="st29" d="M645.3,51.3l-1.2.3v-1s1.8-.5,1.8-.5h.8l-1.7,6.3h-1.1l1.4-5.2h0Z"/>
  <path class="st29" d="M647.1,55.6l3.3-2.4c.6-.5,1-.8,1-1.3s-.4-.8-1-.8-1.1.3-1.6.8l-.7-.7c.6-.7,1.4-1.1,2.3-1.1s2,.7,2,1.7-.4,1.3-1.4,2.1l-2.3,1.7h2.9l-.3,1h-4.6l.2-.9h0Z"/>
  <path class="st29" d="M654.9,50.2h1.1l-.7,2.6h3l.7-2.6h1.1l-1.7,6.3h-1.1l.7-2.7h-3l-.7,2.7h-1.1l1.7-6.3Z"/>
  <path class="st29" d="M662.5,51.3l-1.2.3v-1s1.8-.5,1.8-.5h.8l-1.7,6.3h-1.1l1.4-5.2h0Z"/>
  <path class="st29" d="M664.3,55.4l.8-.7c.4.5.9.8,1.6.8s1.5-.6,1.5-1.2-.5-1-1.3-1-.7.1-1,.3l-.6-.5,1-3h3.7l-.3,1h-2.7l-.5,1.5c.2,0,.5-.1.8-.1,1.2,0,2,.7,2,1.8s-.2,1.1-.7,1.5c-.5.5-1.2.8-2.1.8s-1.8-.5-2.3-1.1h0Z"/>
  <path class="st29" d="M671,53.2h2.7l-.3,1.1h-2.7l.3-1.1Z"/>
  <path class="st29" d="M676.4,51.3l-1.2.3v-1s1.8-.5,1.8-.5h.8l-1.7,6.3h-1.1l1.4-5.2h0Z"/>
  <path class="st29" d="M678.1,55.4l.8-.6c.3.5.8.8,1.5.8s1.4-.5,1.4-1.1-.5-.9-1.4-.9h-.3v-.7c0,0,2.1-1.8,2.1-1.8h-2.7l.3-1h4.2l-.2.8-2.2,1.8c.9.1,1.5.6,1.5,1.6s-.2,1-.6,1.4c-.5.5-1.2.8-2,.8s-1.9-.5-2.3-1.2h0Z"/>
  <path class="st29" d="M686,50.2h1.1l-.7,2.6h3l.7-2.6h1.1l-1.7,6.3h-1.1l.7-2.7h-3l-.7,2.7h-1.1l1.7-6.3Z"/>
  <path class="st29" d="M697.7,52.6c0,1.1-.4,2.3-1.2,3.1-.5.5-1.3.9-2.1.9-1.5,0-2.4-1-2.4-2.5s.4-2.3,1.2-3.1c.5-.5,1.3-.9,2.1-.9,1.5,0,2.3,1,2.3,2.5ZM695.6,55c.6-.6,1-1.6,1-2.4s-.5-1.5-1.3-1.5-.8.2-1.2.5c-.6.6-1,1.6-1,2.4s.5,1.5,1.3,1.5.8-.2,1.2-.5Z"/>
  <path class="st29" d="M704.6,52.6c0,1.1-.4,2.3-1.2,3.1-.5.5-1.3.9-2.1.9-1.5,0-2.4-1-2.4-2.5s.4-2.3,1.2-3.1c.5-.5,1.3-.9,2.1-.9,1.5,0,2.3,1,2.3,2.5ZM702.5,55c.6-.6,1-1.6,1-2.4s-.5-1.5-1.3-1.5-.8.2-1.2.5c-.6.6-1,1.6-1,2.4s.5,1.5,1.3,1.5.8-.2,1.2-.5Z"/>
  <rect class="st6" x="611.4" y="31.9" width="125.2" height="30.7" rx="4.8" ry="4.8"/>
  <g class="st28">
    <rect class="st8" x="187.7" y="162.9" width="127.9" height="20.2"/>
  </g>
  <path class="st29" d="M200.5,173.9c0-1,.4-2.1,1.3-3s1.8-1.2,3.2-1.2,2.6.8,2.9,2l-2.1.9c-.1-.6-.6-.9-1.1-.9s-.9.2-1.1.5-.6.9-.6,1.4c0,.8.5,1.2,1.1,1.2s1-.3,1.4-.7l1.6,1.3c-.7.9-1.7,1.5-3.2,1.5s-3.3-1.2-3.3-3.1h0Z"/>
  <path class="st29" d="M208.1,174.5h2.3l-.6,2.3h-2.3l.6-2.3Z"/>
  <path class="st29" d="M215.2,169.8h2.3l1.1,7.1h-2.5v-.9h-2.6l-.6.9h-2.6l4.8-7.1ZM215.9,174.2l-.2-1.7-1.1,1.7h1.3Z"/>
  <path class="st29" d="M219.8,174.5h2.3l-.6,2.3h-2.3l.6-2.3Z"/>
  <path class="st29" d="M224.5,169.8h5.9l-.5,2h-3.5l-.2.9h3.3l-.5,1.8h-3.3l-.6,2.3h-2.3l1.9-7Z"/>
  <path class="st29" d="M229.7,174.5h2.3l-.6,2.3h-2.3l.6-2.3Z"/>
  <path class="st29" d="M238.8,171.6l-1.2.3v-.9s1.8-.5,1.8-.5h.8l-1.7,6.4h-1.1l1.4-5.2h0Z"/>
  <path class="st29" d="M241,175.1c0-1,.8-1.5,1.7-1.7-.5-.2-.8-.7-.8-1.2,0-.9.9-1.8,2.3-1.8s2.2.7,2.2,1.7-.6,1.4-1.4,1.6c.6.2,1,.7,1,1.4,0,1-1,1.9-2.6,1.9s-2.4-.7-2.4-1.8h0ZM244.8,175c0-.5-.5-.9-1.4-.9s-1.4.4-1.4,1,.5.9,1.3.9,1.4-.4,1.4-1h0ZM245.3,172.2c0-.5-.4-.9-1.2-.9s-1.2.4-1.2.9c0,.5.5.9,1.2.9s1.3-.4,1.3-.9h0Z"/>
  <path class="st29" d="M248.9,170.5h1.1l-.7,2.6h3l.7-2.6h1.1l-1.7,6.3h-1.1l.7-2.7h-3l-.7,2.7h-1.1l1.7-6.3Z"/>
  <path class="st29" d="M260.6,172.9c0,1.1-.4,2.3-1.2,3.1-.5.6-1.3.9-2.1.9-1.4,0-2.4-1-2.4-2.5s.4-2.3,1.2-3.1c.5-.6,1.3-.9,2.1-.9,1.5,0,2.4,1,2.4,2.5ZM258.5,175.4c.6-.6,1-1.6,1-2.4s-.5-1.5-1.3-1.5-.8.2-1.2.5c-.6.6-1,1.6-1,2.4s.5,1.5,1.3,1.5.8-.2,1.2-.5Z"/>
  <path class="st29" d="M267.5,172.9c0,1.1-.4,2.3-1.2,3.1-.5.6-1.3.9-2.1.9-1.5,0-2.4-1-2.4-2.5s.4-2.3,1.2-3.1c.5-.6,1.3-.9,2.1-.9,1.5,0,2.4,1,2.4,2.5h0ZM265.4,175.4c.6-.6,1-1.6,1-2.4s-.5-1.5-1.3-1.5-.8.2-1.2.5c-.6.6-1,1.6-1,2.4s.5,1.5,1.3,1.5.8-.2,1.2-.5Z"/>
  <path class="st29" d="M269,173.5h2.7l-.3,1.1h-2.7l.3-1.1Z"/>
  <path class="st29" d="M274.3,171.6l-1.2.3v-.9s1.8-.5,1.8-.5h.8l-1.7,6.4h-1.1l1.4-5.2h0Z"/>
  <path class="st29" d="M276.4,175.1c0-1,.8-1.5,1.7-1.7-.5-.2-.8-.7-.8-1.2,0-.9.9-1.8,2.3-1.8s2.2.7,2.2,1.7-.6,1.4-1.5,1.6c.6.2,1,.7,1,1.4,0,1-1,1.9-2.6,1.9s-2.4-.7-2.4-1.8h0ZM280.3,175c0-.5-.5-.9-1.4-.9s-1.4.4-1.4,1,.5.9,1.3.9,1.4-.4,1.4-1h0ZM280.8,172.2c0-.5-.4-.9-1.2-.9s-1.2.4-1.2.9c0,.5.5.9,1.2.9s1.3-.4,1.3-.9h0Z"/>
  <path class="st29" d="M284.4,170.5h1.1l-.7,2.6h3l.7-2.6h1.1l-1.7,6.3h-1.1l.7-2.7h-3l-.7,2.7h-1.1l1.7-6.3Z"/>
  <path class="st29" d="M289.7,175.7l.8-.6c.3.5.8.8,1.5.8s1.4-.5,1.4-1.1-.5-.9-1.4-.9h-.3v-.7c0,0,2.1-1.8,2.1-1.8h-2.7l.3-1h4.2l-.2.8-2.2,1.8c.9.1,1.5.6,1.5,1.6s-.2,1-.6,1.4c-.5.5-1.2.8-2,.8s-1.9-.5-2.3-1.2h0Z"/>
  <path class="st29" d="M301.9,172.9c0,1.1-.4,2.3-1.2,3.1-.5.6-1.3.9-2.1.9-1.5,0-2.4-1-2.4-2.5s.4-2.3,1.2-3.1c.5-.6,1.3-.9,2.1-.9,1.5,0,2.4,1,2.4,2.5h0ZM299.8,175.4c.6-.6,1-1.6,1-2.4s-.5-1.5-1.3-1.5-.8.2-1.2.5c-.6.6-1,1.6-1,2.4s.5,1.5,1.3,1.5.8-.2,1.2-.5Z"/>
  <rect class="st6" x="187.7" y="162.9" width="127.9" height="20.2" rx="4.8" ry="4.8"/>
  <g class="st25">
    <rect class="st9" x="471.7" y="162.9" width="126.5" height="20.2"/>
  </g>
  <path class="st29" d="M477.6,169.8h3.1c2.1,0,2.7.8,2.7,1.6s-.6,1.6-1.6,1.8c.7.2,1.1.7,1.1,1.4,0,1.2-.9,2.1-3.3,2.1h-3.8l1.9-7h0ZM479.6,175c.6,0,.9-.2.9-.6s-.2-.4-.8-.4h-1l-.3,1h1.1ZM480.2,172.6c.6,0,.9-.3.9-.6s-.2-.4-.7-.4h-1l-.3,1h1.1Z"/>
  <path class="st29" d="M490.8,172.8c0,1.1-.5,2.1-1.2,2.9s-1.8,1.2-2.9,1.2c-2.1,0-3.5-1.4-3.5-3.2s.5-2.1,1.2-2.9,1.8-1.2,2.9-1.2c2.1,0,3.5,1.4,3.5,3.2ZM487.9,174.5c.4-.4.6-.9.6-1.4,0-.7-.5-1.3-1.3-1.3s-.8.2-1,.4c-.4.4-.6.9-.6,1.4,0,.7.5,1.3,1.3,1.3s.8-.2,1-.4Z"/>
  <path class="st29" d="M491.9,169.8h2.5c1.4,0,2.2.4,2.7.9s.8,1.2.8,2.1-.4,2-1.1,2.8-2,1.3-3.7,1.3h-3l1.9-7h0ZM494.1,171.8h-.4l-.8,2.9h.4c.7,0,1.3-.2,1.7-.6.3-.3.5-.8.5-1.2s-.1-.6-.3-.8c-.2-.2-.6-.4-1.1-.4h0Z"/>
  <path class="st29" d="M498.9,174.1l-1.4-4.3h2.5l.6,2.3,1.8-2.3h2.8l-4,4.6-.6,2.4h-2.3l.7-2.7h0Z"/>
  <path class="st29" d="M507,169.8h2.4c1.3,0,2.1.2,2.6.8.4.4.6.9.6,1.4,0,.8-.2,1.4-.8,2s-1.5.9-2.8.9h-1l-.5,1.9h-2.3l1.9-7h0ZM509.2,171.7h-.4l-.4,1.6h.4c.5,0,.8-.1,1.1-.3.2-.2.2-.4.2-.6s0-.3-.2-.4c-.2-.2-.4-.2-.7-.2Z"/>
  <path class="st29" d="M512.1,174.4c0-.4,0-.8.2-1.1l.9-3.5h2.4l-1,3.6c0,.2,0,.4,0,.6,0,.6.3.9,1,.9s.6-.1.8-.3c.2-.2.3-.5.5-1l1-3.8h2.4l-1.1,4.1c-.2.9-.6,1.6-1.1,2.1-.7.7-1.7.9-2.8.9-2,0-3-.9-3-2.5h0Z"/>
  <path class="st29" d="M520.4,169.8h2.3l.8,2.5,2.2-2.5h2.6l-1.9,7h-2.3l.9-3.5-2.3,2.5h0l-.9-2.5-.9,3.5h-2.3l1.9-7Z"/>
  <path class="st29" d="M528.7,169.8h2.3c1.3,0,2.1.2,2.6.8.4.4.5.9.5,1.4,0,.8-.2,1.4-.8,2-.6.6-1.5.9-2.8.9h-1l-.5,1.9h-2.3l1.9-7h0ZM530.9,171.7h-.4l-.4,1.6h.4c.5,0,.8-.1,1.1-.3.2-.2.2-.4.2-.6s0-.3-.2-.4c-.2-.2-.4-.2-.7-.2Z"/>
  <path class="st29" d="M538.1,171.6l-1.2.3v-.9s1.8-.5,1.8-.5h.8l-1.7,6.4h-1.1l1.4-5.2h0Z"/>
  <path class="st29" d="M539.5,175.1c0-1,.8-1.5,1.7-1.7-.5-.2-.8-.7-.8-1.2,0-.9.9-1.8,2.3-1.8s2.2.7,2.2,1.7-.6,1.4-1.5,1.6c.6.2,1,.7,1,1.4,0,1-1,1.9-2.6,1.9s-2.4-.7-2.4-1.8h0ZM543.3,175c0-.5-.5-.9-1.3-.9s-1.4.4-1.4,1,.5.9,1.3.9,1.4-.4,1.4-1h0ZM543.8,172.2c0-.5-.4-.9-1.2-.9s-1.2.4-1.2.9c0,.5.5.9,1.2.9s1.3-.4,1.3-.9h0Z"/>
  <path class="st29" d="M546.6,170.5h1.1l-.7,2.6h3l.7-2.6h1.1l-1.7,6.3h-1.1l.7-2.7h-3l-.7,2.7h-1.1l1.7-6.3Z"/>
  <path class="st29" d="M557.5,172.9c0,1.1-.4,2.3-1.2,3.1-.5.6-1.3.9-2.1.9-1.5,0-2.4-1-2.4-2.5s.4-2.3,1.2-3.1c.5-.6,1.3-.9,2.1-.9,1.5,0,2.3,1,2.3,2.5ZM555.4,175.4c.6-.6,1-1.6,1-2.4s-.5-1.5-1.3-1.5-.8.2-1.2.5c-.6.6-1,1.6-1,2.4s.5,1.5,1.3,1.5.8-.2,1.2-.5Z"/>
  <path class="st29" d="M563.6,172.9c0,1.1-.4,2.3-1.2,3.1-.5.6-1.3.9-2.1.9-1.5,0-2.4-1-2.4-2.5s.4-2.3,1.2-3.1c.5-.6,1.3-.9,2.1-.9,1.5,0,2.3,1,2.3,2.5ZM561.5,175.4c.6-.6,1-1.6,1-2.4s-.5-1.5-1.3-1.5-.8.2-1.2.5c-.6.6-1,1.6-1,2.4s.5,1.5,1.3,1.5.8-.2,1.2-.5Z"/>
  <path class="st29" d="M564.2,173.5h2.7l-.3,1.1h-2.7l.3-1.1Z"/>
  <path class="st29" d="M568.8,171.6l-1.2.3v-.9s1.8-.5,1.8-.5h.8l-1.7,6.4h-1.1l1.4-5.2h0Z"/>
  <path class="st29" d="M570.1,175.1c0-1,.8-1.5,1.7-1.7-.5-.2-.8-.7-.8-1.2,0-.9.9-1.8,2.3-1.8s2.2.7,2.2,1.7-.6,1.4-1.5,1.6c.6.2,1,.7,1,1.4,0,1-1,1.9-2.6,1.9s-2.4-.7-2.4-1.8h0ZM574,175c0-.5-.5-.9-1.3-.9s-1.4.4-1.4,1,.5.9,1.3.9,1.4-.4,1.4-1h0ZM574.5,172.2c0-.5-.4-.9-1.2-.9s-1.2.4-1.2.9c0,.5.5.9,1.2.9s1.3-.4,1.3-.9h0Z"/>
  <path class="st29" d="M577.2,170.5h1.1l-.7,2.6h3l.7-2.6h1.1l-1.7,6.3h-1.1l.7-2.7h-3l-.7,2.7h-1.1l1.7-6.3Z"/>
  <path class="st29" d="M581.8,175.7l.8-.6c.3.5.8.8,1.5.8s1.4-.5,1.4-1.1-.5-.9-1.4-.9h-.3v-.7c0,0,2.1-1.8,2.1-1.8h-2.7l.3-1h4.2l-.2.8-2.2,1.8c.9.1,1.5.6,1.5,1.6s-.2,1-.6,1.4c-.5.5-1.2.8-2,.8s-1.9-.5-2.3-1.2h0Z"/>
  <path class="st29" d="M593.2,172.9c0,1.1-.4,2.3-1.2,3.1-.5.6-1.3.9-2.1.9-1.5,0-2.4-1-2.4-2.5s.4-2.3,1.2-3.1c.5-.6,1.3-.9,2.1-.9,1.5,0,2.3,1,2.3,2.5ZM591.1,175.4c.6-.6,1-1.6,1-2.4s-.5-1.5-1.3-1.5-.8.2-1.2.5c-.6.6-1,1.6-1,2.4s.5,1.5,1.3,1.5.8-.2,1.2-.5Z"/>
  <rect class="st6" x="471.7" y="162.9" width="126.5" height="20.2" rx="4.8" ry="4.8"/>
  <g class="st24">
    <rect class="st14" x="187.7" y="184.1" width="127.9" height="20.2"/>
  </g>
  <path class="st29" d="M196.3,196.3l4-3.4h-2.9l.5-1.9h6.2l-.4,1.6-4,3.4h3.1l-.5,1.9h-6.3l.4-1.6h0Z"/>
  <path class="st29" d="M204,195.6c0-.4,0-.8.1-1.1l.9-3.5h2.4l-1,3.6c0,.2,0,.4,0,.5,0,.6.3.9,1,.9s.6-.1.8-.3c.2-.2.4-.5.5-1l1-3.8h2.4l-1.1,4.1c-.2.9-.6,1.6-1.1,2.1-.7.7-1.7.9-2.8.9-2,0-3-.9-3-2.5h0Z"/>
  <path class="st29" d="M213.2,191h2.3l.8,2.5,2.2-2.5h2.6l-1.9,7h-2.3l.9-3.5-2.3,2.5h0l-.9-2.5-.9,3.5h-2.3l1.9-7h0Z"/>
  <path class="st29" d="M222.4,191h3.1c2.1,0,2.7.8,2.7,1.6s-.6,1.6-1.6,1.8c.7.2,1.1.7,1.1,1.4,0,1.2-.9,2.1-3.3,2.1h-3.8l1.9-7h0ZM224.4,196.2c.6,0,.9-.2.9-.6s-.2-.4-.8-.4h-1l-.3,1h1.1,0ZM225,193.7c.6,0,.9-.3.9-.6s-.2-.4-.7-.4h-1l-.3,1h1.1Z"/>
  <path class="st29" d="M232.4,190.9h2.3l1.1,7h-2.5v-.9h-2.6l-.6.9h-2.6l4.8-7ZM233,195.4l-.2-1.7-1.1,1.7h1.3Z"/>
  <path class="st29" d="M242.7,192.8l-1.2.3v-1s1.8-.5,1.8-.5h.8l-1.7,6.4h-1.1l1.4-5.2h0Z"/>
  <path class="st29" d="M244.8,196.3c0-1,.8-1.5,1.7-1.7-.5-.2-.8-.7-.8-1.2,0-.9.9-1.8,2.3-1.8s2.2.7,2.2,1.7-.6,1.4-1.4,1.6c.6.2,1,.7,1,1.4,0,1-1,1.9-2.6,1.9s-2.4-.7-2.4-1.8h0ZM248.7,196.2c0-.5-.5-.9-1.4-.9s-1.4.5-1.4,1,.5.9,1.3.9,1.4-.4,1.4-1h0ZM249.2,193.4c0-.5-.4-.9-1.2-.9s-1.2.4-1.2,1c0,.5.5.9,1.2.9s1.3-.4,1.3-1h0Z"/>
  <path class="st29" d="M252.8,191.7h1.1l-.7,2.6h3l.7-2.6h1.1l-1.7,6.3h-1.1l.7-2.7h-3l-.7,2.7h-1.1l1.7-6.3Z"/>
  <path class="st29" d="M258,196.9l.8-.6c.3.5.8.8,1.5.8s1.4-.5,1.4-1.1-.5-.9-1.4-.9h-.3v-.7c0,0,2.1-1.8,2.1-1.8h-2.7l.3-1h4.2l-.2.8-2.2,1.8c.9.1,1.5.6,1.5,1.6s-.2,1-.6,1.4c-.5.5-1.2.8-2,.8s-1.9-.5-2.3-1.2h0Z"/>
  <path class="st29" d="M270.3,194.1c0,1.1-.4,2.3-1.2,3.1s-1.3.9-2.1.9c-1.5,0-2.4-1-2.4-2.5s.4-2.3,1.2-3.1,1.3-.9,2.1-.9c1.5,0,2.4,1,2.4,2.5h0ZM268.2,196.5c.6-.6,1-1.6,1-2.4s-.5-1.5-1.3-1.5-.8.2-1.2.5c-.6.6-1,1.6-1,2.4s.5,1.5,1.3,1.5.8-.2,1.2-.5Z"/>
  <path class="st29" d="M271.8,194.7h2.7l-.3,1.1h-2.7l.3-1.1Z"/>
  <path class="st29" d="M277.1,192.8l-1.2.3v-1s1.8-.5,1.8-.5h.8l-1.7,6.4h-1.1l1.4-5.2h0Z"/>
  <path class="st29" d="M279.1,197.2l.7-.8c.4.4.8.6,1.4.6s1-.2,1.3-.6c.4-.4.6-.9.8-1.4-.3.3-.9.7-1.6.7-1.1,0-1.9-.7-1.9-1.8s.3-1.2.7-1.6,1.1-.8,1.9-.8,1.2.2,1.6.6.6,1,.6,1.9-.5,2.4-1.3,3.2c-.6.6-1.3.9-2.1.9s-1.5-.3-2-.8h0ZM283.1,194.5c.2-.2.4-.6.4-.9s-.1-.5-.3-.7c-.2-.2-.5-.3-.9-.3s-.8.1-1,.4-.4.6-.4.9c0,.6.4,1,1.1,1s.8-.2,1-.4h0Z"/>
  <path class="st29" d="M287,191.7h1.1l-.7,2.6h3l.7-2.6h1.1l-1.7,6.3h-1.1l.7-2.7h-3l-.7,2.7h-1.1l1.7-6.3Z"/>
  <path class="st29" d="M298.7,194.1c0,1.1-.4,2.3-1.2,3.1s-1.3.9-2.1.9c-1.5,0-2.4-1-2.4-2.5s.4-2.3,1.2-3.1,1.3-.9,2.1-.9c1.5,0,2.4,1,2.4,2.5h0ZM296.6,196.5c.6-.6,1-1.6,1-2.4s-.5-1.5-1.3-1.5-.8.2-1.2.5c-.6.6-1,1.6-1,2.4s.5,1.5,1.3,1.5.8-.2,1.2-.5Z"/>
  <path class="st29" d="M305.7,194.1c0,1.1-.4,2.3-1.2,3.1s-1.3.9-2.1.9c-1.5,0-2.4-1-2.4-2.5s.4-2.3,1.2-3.1,1.3-.9,2.1-.9c1.5,0,2.4,1,2.4,2.5h0ZM303.6,196.5c.6-.6,1-1.6,1-2.4s-.5-1.5-1.3-1.5-.8.2-1.2.5c-.6.6-1,1.6-1,2.4s.5,1.5,1.3,1.5.8-.2,1.2-.5Z"/>
  <rect class="st6" x="187.7" y="184.1" width="127.9" height="20.2" rx="4.8" ry="4.8"/>
  <g class="st27">
    <rect class="st7" x="471.7" y="184.1" width="126.5" height="20.2"/>
  </g>
  <path class="st29" d="M479.9,196.3l4-3.4h-3l.5-1.9h6.2l-.4,1.6-4,3.4h3.1l-.5,1.9h-6.3l.4-1.6h0Z"/>
  <path class="st29" d="M487.6,195.6c0-.4,0-.8.1-1.1l.9-3.5h2.4l-1,3.6c0,.2,0,.4,0,.5,0,.6.3.9,1,.9s.6-.1.8-.3.4-.5.5-1l1-3.8h2.4l-1.1,4.1c-.2.9-.6,1.6-1.1,2.1s-1.7.9-2.8.9c-2,0-3-.9-3-2.5h0Z"/>
  <path class="st29" d="M496.8,191h2.3l.8,2.5,2.2-2.5h2.6l-1.9,7h-2.3l.9-3.5-2.3,2.5h0l-.9-2.5-.9,3.5h-2.3l1.9-7Z"/>
  <path class="st29" d="M505.9,191h3.1c2.1,0,2.7.8,2.7,1.6s-.6,1.6-1.6,1.8c.7.2,1.1.7,1.1,1.4,0,1.2-.9,2.1-3.3,2.1h-3.8l1.9-7h0ZM507.9,196.2c.6,0,.9-.2.9-.6s-.2-.4-.8-.4h-1l-.3,1h1.1ZM508.5,193.7c.6,0,.9-.3.9-.6s-.2-.4-.7-.4h-1l-.3,1h1.1Z"/>
  <path class="st29" d="M516,190.9h2.3l1.1,7h-2.5v-.9h-2.6l-.6.9h-2.5l4.8-7h0ZM516.6,195.4l-.2-1.7-1.1,1.7h1.3Z"/>
  <path class="st29" d="M526.2,192.8l-1.2.3v-1s1.8-.5,1.8-.5h.8l-1.7,6.4h-1.1l1.4-5.2h0Z"/>
  <path class="st29" d="M528.4,196.3c0-1,.8-1.5,1.7-1.7-.5-.2-.8-.7-.8-1.2,0-.9.9-1.8,2.3-1.8s2.2.7,2.2,1.7-.6,1.4-1.5,1.6c.6.2,1,.7,1,1.4,0,1-1,1.9-2.6,1.9s-2.4-.7-2.4-1.8h0ZM532.3,196.2c0-.5-.5-.9-1.3-.9s-1.4.5-1.4,1,.5.9,1.3.9,1.4-.4,1.4-1h0ZM532.8,193.4c0-.5-.4-.9-1.2-.9s-1.2.4-1.2,1c0,.5.5.9,1.2.9s1.3-.4,1.3-1h0Z"/>
  <path class="st29" d="M536.3,191.7h1.1l-.7,2.6h3l.7-2.6h1.1l-1.7,6.3h-1.1l.7-2.7h-3l-.7,2.7h-1.1l1.7-6.3Z"/>
  <path class="st29" d="M541.6,196.9l.8-.6c.3.5.8.8,1.5.8s1.4-.5,1.4-1.1-.5-.9-1.4-.9h-.3v-.7c0,0,2.1-1.8,2.1-1.8h-2.7l.3-1h4.2l-.2.8-2.2,1.8c.9.1,1.5.6,1.5,1.6s-.2,1-.6,1.4c-.5.5-1.2.8-2,.8s-1.9-.5-2.3-1.2h0Z"/>
  <path class="st29" d="M553.9,194.1c0,1.1-.4,2.3-1.2,3.1-.5.5-1.3.9-2.1.9-1.5,0-2.4-1-2.4-2.5s.4-2.3,1.2-3.1c.5-.5,1.3-.9,2.1-.9,1.5,0,2.3,1,2.3,2.5ZM551.8,196.5c.6-.6,1-1.6,1-2.4s-.5-1.5-1.3-1.5-.8.2-1.2.5c-.6.6-1,1.6-1,2.4s.5,1.5,1.3,1.5.8-.2,1.2-.5Z"/>
  <path class="st29" d="M555.3,194.7h2.7l-.3,1.1h-2.7l.3-1.1Z"/>
  <path class="st29" d="M560.7,192.8l-1.2.3v-1s1.8-.5,1.8-.5h.8l-1.7,6.4h-1.1l1.4-5.2h0Z"/>
  <path class="st29" d="M562.7,197.2l.7-.8c.4.4.8.6,1.4.6s1-.2,1.3-.6c.4-.4.7-.9.8-1.4-.3.3-.9.7-1.6.7-1.1,0-1.9-.7-1.9-1.8s.3-1.2.7-1.6c.5-.5,1.1-.8,1.9-.8s1.2.2,1.6.6c.4.4.6,1,.6,1.9s-.5,2.4-1.3,3.2c-.6.6-1.3.9-2.2.9s-1.5-.3-2-.8h0ZM566.7,194.5c.2-.2.4-.6.4-.9s-.1-.5-.3-.7c-.2-.2-.5-.3-.9-.3s-.8.1-1,.4c-.2.2-.4.6-.4.9,0,.6.4,1,1.2,1s.8-.2,1-.4h0Z"/>
  <path class="st29" d="M570.6,191.7h1.1l-.7,2.6h3l.7-2.6h1.1l-1.7,6.3h-1.1l.7-2.7h-3l-.7,2.7h-1.1l1.7-6.3Z"/>
  <path class="st29" d="M582.3,194.1c0,1.1-.4,2.3-1.2,3.1-.5.5-1.3.9-2.1.9-1.5,0-2.4-1-2.4-2.5s.4-2.3,1.2-3.1c.5-.5,1.3-.9,2.1-.9,1.5,0,2.3,1,2.3,2.5ZM580.2,196.5c.6-.6,1-1.6,1-2.4s-.5-1.5-1.3-1.5-.8.2-1.2.5c-.6.6-1,1.6-1,2.4s.5,1.5,1.3,1.5.8-.2,1.2-.5Z"/>
  <path class="st29" d="M589.3,194.1c0,1.1-.4,2.3-1.2,3.1-.5.5-1.3.9-2.1.9-1.5,0-2.4-1-2.4-2.5s.4-2.3,1.2-3.1c.5-.5,1.3-.9,2.1-.9,1.5,0,2.3,1,2.3,2.5ZM587.2,196.5c.6-.6,1-1.6,1-2.4s-.5-1.5-1.3-1.5-.8.2-1.2.5c-.6.6-1,1.6-1,2.4s.5,1.5,1.3,1.5.8-.2,1.2-.5Z"/>
  <rect class="st6" x="471.7" y="184.1" width="126.5" height="20.2" rx="4.8" ry="4.8"/>
  <g class="st26">
    <rect class="st33" x="187.7" y="205.2" width="127.9" height="20.2"/>
  </g>
  <path class="st29" d="M193.7,212.1h3.1c2.1,0,2.7.8,2.7,1.6s-.6,1.6-1.6,1.8c.7.2,1.1.7,1.1,1.4,0,1.2-.9,2.1-3.3,2.1h-3.8l1.9-7h0ZM195.7,217.4c.6,0,.9-.2.9-.6s-.2-.4-.8-.4h-1l-.3,1h1.1,0ZM196.3,214.9c.6,0,.9-.3.9-.6s-.2-.4-.7-.4h-1l-.3,1h1.1Z"/>
  <path class="st29" d="M206.9,215.2c0,1.1-.5,2.1-1.2,2.9s-1.8,1.2-2.9,1.2c-2.1,0-3.5-1.4-3.5-3.2s.5-2.1,1.2-2.9,1.8-1.2,2.9-1.2c2.1,0,3.5,1.4,3.5,3.2ZM204,216.8c.4-.4.6-.9.6-1.4,0-.7-.4-1.3-1.3-1.3s-.8.2-1,.4c-.4.4-.6.9-.6,1.4,0,.7.4,1.3,1.3,1.3s.8-.2,1-.4Z"/>
  <path class="st29" d="M208.1,212.1h2.5c1.4,0,2.2.4,2.7.9.5.5.8,1.2.8,2s-.4,2-1.1,2.8-2.1,1.3-3.7,1.3h-3l1.9-7h0ZM210.3,214.2h-.4l-.8,2.9h.4c.7,0,1.3-.2,1.7-.6.3-.3.5-.8.5-1.2s-.1-.6-.3-.8-.6-.4-1.1-.4Z"/>
  <path class="st29" d="M215.1,216.5l-1.4-4.3h2.5l.6,2.3,1.8-2.3h2.8l-4,4.6-.6,2.4h-2.3l.7-2.7h0Z"/>
  <path class="st29" d="M223.3,212.1h2.4c1.3,0,2.1.2,2.6.8.4.4.6.9.6,1.4,0,.8-.2,1.4-.8,2s-1.5,1-2.8,1h-1l-.5,1.9h-2.3l1.9-7h0ZM225.6,214h-.4l-.4,1.6h.4c.5,0,.8-.1,1.1-.3s.2-.4.2-.6,0-.3-.2-.4c-.2-.2-.4-.2-.7-.2Z"/>
  <path class="st29" d="M228.4,216.7c0-.4,0-.8.1-1.1l.9-3.5h2.4l-1,3.6c0,.2,0,.4,0,.5,0,.6.3.9,1,.9s.6-.1.8-.3c.2-.2.4-.5.5-1l1-3.8h2.4l-1.1,4.1c-.2.9-.6,1.6-1.1,2.1-.7.7-1.7.9-2.8.9-2,0-3-.9-3-2.5h0Z"/>
  <path class="st29" d="M236.8,212.1h2.3l.8,2.5,2.2-2.5h2.6l-1.9,7h-2.3l.9-3.5-2.3,2.5h0l-.9-2.5-.9,3.5h-2.3l1.9-7h0Z"/>
  <path class="st29" d="M245.1,212.1h2.4c1.3,0,2.1.2,2.6.8.4.4.6.9.6,1.4,0,.8-.2,1.4-.8,2s-1.5,1-2.8,1h-1l-.5,1.9h-2.3l1.9-7h0ZM247.4,214h-.4l-.4,1.6h.4c.5,0,.8-.1,1.1-.3s.2-.4.2-.6,0-.3-.2-.4c-.2-.2-.4-.2-.7-.2Z"/>
  <path class="st29" d="M254.7,214l-1.2.3v-1s1.8-.5,1.8-.5h.8l-1.7,6.4h-1.1l1.4-5.2h0Z"/>
  <path class="st29" d="M256,218.4l.7-.8c.4.4.8.6,1.4.6s1-.2,1.3-.6c.4-.4.6-.9.8-1.4-.3.3-.9.7-1.6.7-1.1,0-1.9-.7-1.9-1.8s.3-1.2.7-1.6,1.1-.8,1.9-.8,1.2.2,1.6.6.6,1,.6,1.9-.5,2.4-1.3,3.2c-.6.6-1.3.9-2.1.9s-1.5-.3-2-.8h0ZM259.9,215.6c.2-.2.4-.6.4-.9s-.1-.5-.3-.7c-.2-.2-.5-.3-.9-.3s-.8.1-1,.4-.4.6-.4.9c0,.6.4,1,1.1,1s.8-.2,1-.4h0Z"/>
  <path class="st29" d="M263.1,212.8h1.1l-.7,2.6h3l.7-2.6h1.1l-1.7,6.3h-1.1l.7-2.7h-3l-.7,2.7h-1.1l1.7-6.3Z"/>
  <path class="st29" d="M274,215.3c0,1.1-.4,2.3-1.2,3.1s-1.3.9-2.1.9c-1.5,0-2.4-1-2.4-2.5s.4-2.3,1.2-3.1,1.3-.9,2.1-.9c1.5,0,2.4,1,2.4,2.5h0ZM272,217.7c.6-.6,1-1.6,1-2.4s-.5-1.5-1.3-1.5-.8.2-1.2.5c-.6.6-1,1.6-1,2.4s.5,1.5,1.3,1.5.8-.2,1.2-.5Z"/>
  <path class="st29" d="M280.2,215.3c0,1.1-.4,2.3-1.2,3.1s-1.3.9-2.1.9c-1.5,0-2.4-1-2.4-2.5s.4-2.3,1.2-3.1,1.3-.9,2.1-.9c1.5,0,2.4,1,2.4,2.5h0ZM278.2,217.7c.6-.6,1-1.6,1-2.4s-.5-1.5-1.3-1.5-.8.2-1.2.5c-.6.6-1,1.6-1,2.4s.5,1.5,1.3,1.5.8-.2,1.2-.5Z"/>
  <path class="st29" d="M280.9,215.8h2.7l-.3,1.1h-2.7l.3-1.1Z"/>
  <path class="st29" d="M285.5,214l-1.2.3v-1s1.8-.5,1.8-.5h.8l-1.7,6.4h-1.1l1.4-5.2h0Z"/>
  <path class="st29" d="M286.8,218.4l.7-.8c.4.4.8.6,1.4.6s1-.2,1.3-.6c.4-.4.6-.9.8-1.4-.3.3-.9.7-1.6.7-1.1,0-1.9-.7-1.9-1.8s.3-1.2.7-1.6,1.1-.8,1.9-.8,1.2.2,1.6.6.6,1,.6,1.9-.5,2.4-1.3,3.2c-.6.6-1.3.9-2.1.9s-1.5-.3-2-.8h0ZM290.7,215.6c.2-.2.4-.6.4-.9s-.1-.5-.3-.7c-.2-.2-.5-.3-.9-.3s-.8.1-1,.4-.4.6-.4.9c0,.6.4,1,1.1,1s.8-.2,1-.4h0Z"/>
  <path class="st29" d="M293.9,212.8h1.1l-.7,2.6h3l.7-2.6h1.1l-1.7,6.3h-1.1l.7-2.7h-3l-.7,2.7h-1.1l1.7-6.3Z"/>
  <path class="st29" d="M298.5,218l.8-.6c.3.5.8.8,1.5.8s1.4-.5,1.4-1.1-.5-.9-1.4-.9h-.3v-.7c0,0,2.1-1.8,2.1-1.8h-2.7l.3-1h4.2l-.2.8-2.2,1.8c.9.1,1.5.6,1.5,1.6s-.2,1-.6,1.4c-.5.5-1.2.8-2,.8s-1.9-.5-2.3-1.2h0Z"/>
  <path class="st29" d="M310,215.3c0,1.1-.4,2.3-1.2,3.1s-1.3.9-2.1.9c-1.5,0-2.4-1-2.4-2.5s.4-2.3,1.2-3.1,1.3-.9,2.1-.9c1.5,0,2.4,1,2.4,2.5h0ZM307.9,217.7c.6-.6,1-1.6,1-2.4s-.5-1.5-1.3-1.5-.8.2-1.2.5c-.6.6-1,1.6-1,2.4s.5,1.5,1.3,1.5.8-.2,1.2-.5Z"/>
  <rect class="st6" x="187.7" y="205.2" width="127.9" height="20.2" rx="4.8" ry="4.8"/>
  <g class="st16">
    <rect class="st36" x="471.7" y="205.2" width="126.5" height="20.2"/>
  </g>
  <path class="st29" d="M482.1,212.1h2.4c1.3,0,2.1.2,2.6.8.4.4.5.9.5,1.4,0,.8-.2,1.4-.8,2s-1.5,1-2.8,1h-1l-.5,1.9h-2.3l1.9-7ZM484.4,214h-.4l-.4,1.6h.4c.5,0,.8-.1,1.1-.3s.2-.4.2-.6,0-.3-.2-.4c-.2-.2-.4-.2-.7-.2Z"/>
  <path class="st29" d="M489.3,212.1h2.3l-1.9,7h-2.3l1.9-7Z"/>
  <path class="st29" d="M492.9,212.1h2.3l-1.3,5h3.2l-.5,2h-5.5l1.9-7Z"/>
  <path class="st29" d="M501.9,212.1h2.3l1.1,7h-2.5v-.9h-2.6l-.6.9h-2.5l4.8-7h0ZM502.6,216.5l-.2-1.7-1.1,1.7h1.3Z"/>
  <path class="st29" d="M508.2,214.1h-2.1l.5-2h6.5l-.5,2h-2.1l-1.4,5h-2.3l1.4-5Z"/>
  <path class="st29" d="M514.2,212.1h6l-.5,1.9h-3.7l-.2.7h3.4l-.5,1.7h-3.4l-.2.8h3.7l-.5,1.9h-6l1.9-7h0Z"/>
  <path class="st29" d="M525.8,214l-1.2.3v-1s1.8-.5,1.8-.5h.8l-1.7,6.4h-1.1l1.4-5.2h0Z"/>
  <path class="st29" d="M527.8,218.4l.7-.8c.4.4.8.6,1.4.6s1-.2,1.3-.6c.4-.4.7-.9.8-1.4-.3.3-.9.7-1.6.7-1.1,0-1.9-.7-1.9-1.8s.3-1.2.7-1.6c.5-.5,1.1-.8,1.9-.8s1.2.2,1.6.6c.4.4.6,1,.6,1.9s-.5,2.4-1.3,3.2c-.6.6-1.3.9-2.2.9s-1.5-.3-2-.8h0ZM531.7,215.6c.2-.2.4-.6.4-.9s-.1-.5-.3-.7c-.2-.2-.5-.3-.9-.3s-.8.1-1,.4c-.2.2-.4.6-.4.9,0,.6.4,1,1.2,1s.8-.2,1-.4h0Z"/>
  <path class="st29" d="M535.7,212.8h1.1l-.7,2.6h3l.7-2.6h1.1l-1.7,6.3h-1.1l.7-2.7h-3l-.7,2.7h-1.1l1.7-6.3Z"/>
  <path class="st29" d="M547.4,215.3c0,1.1-.4,2.3-1.2,3.1-.5.5-1.3.9-2.1.9-1.5,0-2.4-1-2.4-2.5s.4-2.3,1.2-3.1c.5-.5,1.3-.9,2.1-.9,1.5,0,2.3,1,2.3,2.5ZM545.3,217.7c.6-.6,1-1.6,1-2.4s-.5-1.5-1.3-1.5-.8.2-1.2.5c-.6.6-1,1.6-1,2.4s.5,1.5,1.3,1.5.8-.2,1.2-.5Z"/>
  <path class="st29" d="M554.3,215.3c0,1.1-.4,2.3-1.2,3.1-.5.5-1.3.9-2.1.9-1.5,0-2.4-1-2.4-2.5s.4-2.3,1.2-3.1c.5-.5,1.3-.9,2.1-.9,1.5,0,2.3,1,2.3,2.5ZM552.2,217.7c.6-.6,1-1.6,1-2.4s-.5-1.5-1.3-1.5-.8.2-1.2.5c-.6.6-1,1.6-1,2.4s.5,1.5,1.3,1.5.8-.2,1.2-.5Z"/>
  <path class="st29" d="M555.8,215.8h2.7l-.3,1.1h-2.7l.3-1.1Z"/>
  <path class="st29" d="M561.1,214l-1.2.3v-1s1.8-.5,1.8-.5h.8l-1.7,6.4h-1.1l1.4-5.2h0Z"/>
  <path class="st29" d="M563.1,218.4l.7-.8c.4.4.8.6,1.4.6s1-.2,1.3-.6c.4-.4.7-.9.8-1.4-.3.3-.9.7-1.6.7-1.1,0-1.9-.7-1.9-1.8s.3-1.2.7-1.6c.5-.5,1.1-.8,1.9-.8s1.2.2,1.6.6c.4.4.6,1,.6,1.9s-.5,2.4-1.3,3.2c-.6.6-1.3.9-2.2.9s-1.5-.3-2-.8h0ZM567.1,215.6c.2-.2.4-.6.4-.9s-.1-.5-.3-.7c-.2-.2-.5-.3-.9-.3s-.8.1-1,.4c-.2.2-.4.6-.4.9,0,.6.4,1,1.2,1s.8-.2,1-.4h0Z"/>
  <path class="st29" d="M571,212.8h1.1l-.7,2.6h3l.7-2.6h1.1l-1.7,6.3h-1.1l.7-2.7h-3l-.7,2.7h-1.1l1.7-6.3Z"/>
  <path class="st29" d="M576.3,218l.8-.6c.3.5.8.8,1.5.8s1.4-.5,1.4-1.1-.5-.9-1.4-.9h-.3v-.7c0,0,2.1-1.8,2.1-1.8h-2.7l.3-1h4.2l-.2.8-2.2,1.8c.9.1,1.5.6,1.5,1.6s-.2,1-.6,1.4c-.5.5-1.2.8-2,.8s-1.9-.5-2.3-1.2h0Z"/>
  <path class="st29" d="M588.6,215.3c0,1.1-.4,2.3-1.2,3.1-.5.5-1.3.9-2.1.9-1.5,0-2.4-1-2.4-2.5s.4-2.3,1.2-3.1c.5-.5,1.3-.9,2.1-.9,1.5,0,2.3,1,2.3,2.5ZM586.5,217.7c.6-.6,1-1.6,1-2.4s-.5-1.5-1.3-1.5-.8.2-1.2.5c-.6.6-1,1.6-1,2.4s.5,1.5,1.3,1.5.8-.2,1.2-.5Z"/>
  <rect class="st6" x="471.7" y="205.2" width="126.5" height="20.2" rx="4.8" ry="4.8"/>
  <rect class="st48" x="49.2" y="119.2" width="125.2" height="42.8" rx="4.8" ry="4.8"/>
  <rect class="st6" x="49.2" y="119.2" width="125.2" height="42.8" rx="4.8" ry="4.8"/>
  <rect class="st48" x="49.2" y="205.2" width="125.2" height="30.6" rx="4.8" ry="4.8"/>
  <rect class="st6" x="49.2" y="205.2" width="125.2" height="30.6" rx="4.8" ry="4.8"/>
  <path class="st48" d="M192.4,226.4c-2.6,0-4.7,2.1-4.7,4.7s2.1,4.7,4.7,4.7h118.5c2.6,0,4.7-2.1,4.7-4.7s-2.1-4.7-4.7-4.7h-118.5Z"/>
  <path class="st6" d="M192.4,226.4c-2.6,0-4.7,2.1-4.7,4.7s2.1,4.7,4.7,4.7h118.5c2.6,0,4.7-2.1,4.7-4.7s-2.1-4.7-4.7-4.7h-118.5Z"/>
  <path class="st48" d="M335.2,205.6h116.5c2.7,0,4.8,2.2,4.8,4.8v20.6c0,2.7-2.2,4.8-4.8,4.8h-116.5c-2.7,0-4.8-2.2-4.8-4.8v-20.6c0-2.7,2.2-4.8,4.8-4.8h0Z"/>
  <path class="st6" d="M335.2,205.6h116.5c2.7,0,4.8,2.2,4.8,4.8v20.6c0,2.7-2.2,4.8-4.8,4.8h-116.5c-2.7,0-4.8-2.2-4.8-4.8v-20.6c0-2.7,2.2-4.8,4.8-4.8h0Z"/>
  <path class="st48" d="M476.5,226.4c-2.6,0-4.7,2.1-4.7,4.7s2.1,4.7,4.7,4.7h117.1c2.6,0,4.7-2.1,4.7-4.7s-2.1-4.7-4.7-4.7h-117.1Z"/>
  <path class="st6" d="M476.5,226.4c-2.6,0-4.7,2.1-4.7,4.7s2.1,4.7,4.7,4.7h117.1c2.6,0,4.7-2.1,4.7-4.7s-2.1-4.7-4.7-4.7h-117.1Z"/>
  <rect class="st48" x="611.4" y="205.2" width="126.1" height="30.6" rx="4.8" ry="4.8"/>
  <rect class="st6" x="611.4" y="205.2" width="126.1" height="30.6" rx="4.8" ry="4.8"/>
  <rect class="st48" x="187.7" y="119.2" width="127.9" height="42.8" rx="4.8" ry="4.8"/>
  <rect class="st6" x="187.7" y="119.2" width="127.9" height="42.8" rx="4.8" ry="4.8"/>
  <path class="st48" d="M335.2,119.2h116.5c2.7,0,4.8,2.2,4.8,4.8v43.5c0,2.7-2.2,4.8-4.8,4.8h-116.5c-2.7,0-4.8-2.2-4.8-4.8v-43.5c0-2.7,2.2-4.8,4.8-4.8h0Z"/>
  <path class="st6" d="M335.2,119.2h116.5c2.7,0,4.8,2.2,4.8,4.8v43.5c0,2.7-2.2,4.8-4.8,4.8h-116.5c-2.7,0-4.8-2.2-4.8-4.8v-43.5c0-2.7,2.2-4.8,4.8-4.8h0Z"/>
  <path class="st48" d="M476.1,119.2h117.5c2.7,0,4.8,2.2,4.8,4.8v33.1c0,2.7-2.2,4.8-4.8,4.8h-117.5c-2.7,0-4.8-2.2-4.8-4.8v-33.1c0-2.7,2.2-4.8,4.8-4.8h0Z"/>
  <path class="st6" d="M476.1,119.2h117.5c2.7,0,4.8,2.2,4.8,4.8v33.1c0,2.7-2.2,4.8-4.8,4.8h-117.5c-2.7,0-4.8-2.2-4.8-4.8v-33.1c0-2.7,2.2-4.8,4.8-4.8h0Z"/>
  <path class="st31" d="M1.9,20.7l-1.5.4v-2.5c0,0,3.1-.8,3.1-.8h2.5l-2.7,9.9H0s1.9-6.9,1.9-6.9Z"/>
  <path class="st31" d="M6.5,25.2l5-3.1c.8-.5.9-.8.9-1.1s-.2-.6-.7-.6-1.4.5-2.1,1.2l-1.8-2c1.1-1.2,2.4-2,4.4-2s3.5,1.2,3.5,2.9-.6,2.3-2.8,3.5l-1.8,1h3.7l-.7,2.6H5.8s.7-2.4.7-2.4Z"/>
  <path class="st31" d="M18,17.3h1.9l-.5,2h1.8l.5-2h1.9l-1.5,5.7h-1.9l.5-2h-1.8l-.5,2h-1.9l1.5-5.7Z"/>
  <path class="st31" d="M1.9,62.6l-1.5.4v-2.5c0,0,3.1-.8,3.1-.8h2.5l-2.7,9.9H0s1.9-6.9,1.9-6.9Z"/>
  <path class="st31" d="M5.9,67.8l2.1-1.9c.6.7,1.2,1.1,2,1.1s1.4-.5,1.4-.9-.3-.6-1.2-.6h-1.2v-1.5s2.6-1.7,2.6-1.7h-3.6l.7-2.5h7.5l-.6,2.2-2.8,1.8c1.2.4,1.9,1.3,1.9,2.3s-.3,1.8-.9,2.4c-.8.8-2,1.2-3.6,1.2s-3.2-.6-4.2-1.9h0Z"/>
  <path class="st31" d="M17.6,59.1h1.9l-.5,2h1.8l.5-2h1.9l-1.5,5.7h-1.9l.5-2h-1.8l-.5,2h-1.9s1.5-5.7,1.5-5.7Z"/>
  <path class="st34" d="M29.3,19.9h11.4c.3,0,.5.2.5.5s-.2.5-.5.5h-11.4c-.3,0-.5-.2-.5-.5s.2-.5.5-.5"/>
  <line class="st5" x1="29.3" y1="51.6" x2="34.8" y2="51.6"/>
  <line class="st5" x1="29.3" y1="30.7" x2="34.8" y2="30.7"/>
  <path class="st32" d="M29.3,61.8h11.4c.3,0,.5.2.5.5s-.2.5-.5.5h-11.4c-.3,0-.5-.2-.5-.5s.2-.5.5-.5"/>
  <line class="st5" x1="29.3" y1="72.6" x2="34.8" y2="72.6"/>
  <line class="st3" x1="29.3" y1="41.2" x2="34.5" y2="41.2"/>
  <line class="st3" x1="29.3" y1="83" x2="34.5" y2="83"/>
  <path class="st31" d="M2,163l-1.5.4v-2.6c0,0,3.1-.8,3.1-.8h2.5l-2.7,9.9H.1l1.9-6.9Z"/>
  <path class="st31" d="M6.7,167.3c0-1.3.8-2.2,2.3-2.7-.6-.4-.9-1-.9-1.8,0-1.5,1.4-2.9,4.1-2.9s3.8,1.2,3.8,2.7-.8,2-2.1,2.4c.9.4,1.4,1,1.4,2,0,1.8-1.8,3-4.4,3s-4.1-1-4.1-2.7h0ZM12.2,166.7c0-.6-.6-.9-1-.9s-1.2.4-1.2,1.1.6.9,1.1.9,1.2-.4,1.2-1.1ZM12.9,163c0-.6-.6-.9-1-.9s-1.1.4-1.1,1,.5.9,1,.9,1.1-.4,1.1-1Z"/>
  <path class="st31" d="M18.4,159.5h1.9l-.5,2h1.8l.5-2h1.9l-1.5,5.7h-1.9l.5-2.1h-1.8l-.5,2.1h-1.9l1.5-5.7Z"/>
  <path class="st31" d="M765.5,163l-1.5.4v-2.6c0,0,3.1-.8,3.1-.8h2.5l-2.7,9.9h-3.2l1.8-6.9Z"/>
  <path class="st31" d="M770.2,167.3c0-1.3.8-2.2,2.3-2.7-.6-.4-.9-1-.9-1.8,0-1.5,1.4-2.9,4.1-2.9s3.8,1.2,3.8,2.7-.8,2-2.1,2.4c.8.4,1.4,1,1.4,2,0,1.8-1.8,3-4.5,3s-4.1-1-4.1-2.7h0ZM775.7,166.7c0-.6-.6-.9-1-.9s-1.2.4-1.2,1.1.6.9,1,.9,1.2-.4,1.2-1.1ZM776.5,163c0-.6-.5-.9-1-.9s-1.1.4-1.1,1,.5.9,1,.9,1.1-.4,1.1-1h0Z"/>
  <path class="st31" d="M782,159.5h1.9l-.5,2h1.8l.5-2h1.9l-1.5,5.7h-1.9l.5-2.1h-1.8l-.5,2.1h-1.9l1.5-5.7h0Z"/>
  <path class="st31" d="M2,204.8l-1.5.4v-2.5c0,0,3.1-.8,3.1-.8h2.5l-2.7,9.9H.1l1.9-6.9h0Z"/>
  <path class="st31" d="M6.2,210.8l1.5-2.2c.6.6,1.4.9,2,.9s1.4-.3,1.9-.8c.3-.3.5-.6.6-.9-.6.4-1.3.8-2.2.8-1.4,0-2.6-1-2.6-2.6s.4-2.1,1.2-2.8c.8-.8,1.9-1.3,3.2-1.3s2.3.4,2.9,1.1c.7.7,1,1.6,1,2.6,0,1.7-.6,3.6-1.9,4.9-1,1-2.3,1.6-4.1,1.6s-2.6-.3-3.5-1.1ZM12.3,206.1c.2-.3.4-.7.4-1.1s0-.5-.2-.7c-.1-.1-.4-.3-.7-.3s-.6.1-.8.3c-.3.3-.4.7-.4,1.1s.4.9.9.9.6-.1.8-.4Z"/>
  <path class="st31" d="M18.4,201.4h1.9l-.5,2h1.8l.5-2h1.9l-1.5,5.7h-1.9l.5-2h-1.8l-.5,2h-1.9l1.5-5.7Z"/>
  <path class="st31" d="M765.5,204.8l-1.5.4v-2.5c0,0,3.1-.8,3.1-.8h2.5l-2.7,9.9h-3.2l1.8-6.9h0Z"/>
  <path class="st31" d="M769.8,210.8l1.5-2.2c.6.6,1.4.9,2,.9s1.4-.3,1.9-.8c.3-.3.5-.6.6-.9-.6.4-1.3.8-2.2.8-1.4,0-2.6-1-2.6-2.6s.4-2.1,1.2-2.8c.8-.8,2-1.3,3.2-1.3s2.2.4,2.9,1.1c.7.7,1,1.6,1,2.6,0,1.7-.6,3.6-1.9,4.9-1,1-2.3,1.6-4.1,1.6s-2.5-.3-3.5-1.1h0ZM775.9,206.1c.2-.3.4-.7.4-1.1s0-.5-.2-.7-.4-.3-.7-.3-.6.1-.8.3c-.3.3-.5.7-.5,1.1s.3.9.9.9.6-.1.8-.4h0Z"/>
  <path class="st31" d="M782,201.4h1.9l-.5,2h1.8l.5-2h1.9l-1.5,5.7h-1.9l.5-2h-1.8l-.5,2h-1.9l1.5-5.7h0Z"/>
  <path class="st31" d="M2,121l-1.5.4v-2.6c0,0,3.1-.8,3.1-.8h2.5l-2.7,9.9H.1l1.9-6.9Z"/>
  <path class="st31" d="M11.9,120.8h-4.3l.7-2.7h8l-.7,2.5-5.8,7.3h-3.7l5.7-7.1h0Z"/>
  <path class="st31" d="M17.8,117.6h1.9l-.5,2h1.8l.5-2h1.9l-1.5,5.7h-1.9l.5-2.1h-1.8l-.5,2.1h-1.9l1.5-5.7Z"/>
  <path class="st31" d="M766.2,121l-1.5.4v-2.6c0,0,3.1-.8,3.1-.8h2.5l-2.7,9.9h-3.2l1.8-6.9Z"/>
  <path class="st31" d="M776.2,120.8h-4.3l.7-2.7h8l-.7,2.5-5.8,7.3h-3.7l5.7-7.1h0Z"/>
  <path class="st31" d="M782,117.6h1.9l-.5,2h1.8l.5-2h1.9l-1.5,5.7h-1.9l.5-2.1h-1.8l-.5,2.1h-1.9l1.5-5.7h0Z"/>
  <path class="st37" d="M29.4,120.1h11.4c.3,0,.5.2.5.5s-.2.5-.5.5h-11.4c-.3,0-.5-.2-.5-.5s.2-.5.5-.5"/>
  <path class="st35" d="M756.6,121.1h-11.4c-.3,0-.5-.2-.5-.5s.2-.5.5-.5h11.4c.3,0,.5.2.5.5s-.2.5-.5.5"/>
  <line class="st5" x1="29.4" y1="151.8" x2="34.9" y2="151.8"/>
  <line class="st5" x1="756.6" y1="151.8" x2="751.1" y2="151.8"/>
  <line class="st5" x1="29.4" y1="130.9" x2="34.9" y2="130.9"/>
  <line class="st5" x1="756.6" y1="130.9" x2="751.1" y2="130.9"/>
  <path class="st43" d="M29.4,162h11.4c.3,0,.5.2.5.5s-.2.5-.5.5h-11.4c-.3,0-.5-.2-.5-.5s.2-.5.5-.5"/>
  <path class="st47" d="M756.6,163h-11.4c-.3,0-.5-.2-.5-.5s.2-.5.5-.5h11.4c.3,0,.5.2.5.5s-.2.5-.5.5"/>
  <line class="st5" x1="29.4" y1="193.7" x2="34.9" y2="193.7"/>
  <line class="st5" x1="756.6" y1="193.7" x2="751.1" y2="193.7"/>
  <line class="st5" x1="29.4" y1="172.7" x2="34.9" y2="172.7"/>
  <line class="st5" x1="756.6" y1="172.7" x2="751.1" y2="172.7"/>
  <path class="st46" d="M29.4,203.9h11.4c.3,0,.5.2.5.5s-.2.5-.5.5h-11.4c-.3,0-.5-.2-.5-.5s.2-.5.5-.5"/>
  <path class="st42" d="M756.6,204.9h-11.4c-.3,0-.5-.2-.5-.5s.2-.5.5-.5h11.4c.3,0,.5.2.5.5s-.2.5-.5.5"/>
  <line class="st3" x1="29.3" y1="141.3" x2="34.6" y2="141.3"/>
  <line class="st3" x1="756.7" y1="141.3" x2="751.4" y2="141.3"/>
  <line class="st3" x1="29.3" y1="183.2" x2="34.6" y2="183.2"/>
  <line class="st3" x1="756.7" y1="183.2" x2="751.4" y2="183.2"/>
  <line class="st3" x1="29.3" y1="225.2" x2="34.6" y2="225.2"/>
  <line class="st3" x1="756.7" y1="225.2" x2="751.4" y2="225.2"/>
  <line class="st5" x1="29.4" y1="233.6" x2="34.9" y2="233.6"/>
  <line class="st5" x1="756.6" y1="233.6" x2="751.1" y2="233.6"/>
  <line class="st5" x1="29.4" y1="214.7" x2="34.9" y2="214.7"/>
  <line class="st5" x1="756.6" y1="214.7" x2="751.1" y2="214.7"/>
  <path class="st31" d="M764.2,18.8l-1.5.4v-2.5c0,0,3.1-.8,3.1-.8h2.5l-2.7,9.9h-3.2l1.8-6.9Z"/>
  <path class="st31" d="M768.8,23.2l5-3.1c.8-.5.8-.8.8-1.1s-.2-.6-.7-.6-1.4.5-2.1,1.2l-1.8-2c1.1-1.2,2.4-2,4.4-2s3.5,1.2,3.5,2.9-.6,2.3-2.8,3.5l-1.8,1h3.7l-.7,2.6h-8.2l.7-2.4h0Z"/>
  <path class="st31" d="M780.3,15.3h1.9l-.5,2h1.8l.5-2h1.9l-1.5,5.7h-1.9l.5-2h-1.8l-.5,2h-1.9l1.5-5.7h0Z"/>
  <path class="st31" d="M764.2,60.7l-1.5.4v-2.5c0,0,3.1-.8,3.1-.8h2.5l-2.7,9.9h-3.2s1.8-6.9,1.8-6.9Z"/>
  <path class="st31" d="M768.2,65.9l2.1-1.9c.5.7,1.2,1.1,2,1.1s1.4-.5,1.4-.9-.3-.6-1.2-.6h-1.2v-1.5s2.6-1.7,2.6-1.7h-3.6l.7-2.5h7.5l-.6,2.2-2.8,1.8c1.2.4,1.9,1.3,1.9,2.3s-.3,1.8-1,2.4c-.8.8-2,1.2-3.6,1.2s-3.2-.6-4.2-1.9h0Z"/>
  <path class="st31" d="M780,57.2h1.9l-.5,2h1.8l.5-2h1.9l-1.5,5.7h-1.9l.5-2h-1.8l-.5,2h-1.9l1.5-5.7h0Z"/>
  <path class="st45" d="M756.6,20.9h-11.4c-.3,0-.5-.2-.5-.5s.2-.5.5-.5h11.4c.3,0,.5.2.5.5s-.2.5-.5.5"/>
  <line class="st5" x1="756.6" y1="51.6" x2="751.1" y2="51.6"/>
  <line class="st5" x1="756.6" y1="30.7" x2="751.1" y2="30.7"/>
  <path class="st41" d="M756.6,62.8h-11.4c-.3,0-.5-.2-.5-.5s.2-.5.5-.5h11.4c.3,0,.5.2.5.5s-.2.5-.5.5"/>
  <line class="st5" x1="756.6" y1="72.6" x2="751.1" y2="72.6"/>
  <line class="st3" x1="756.6" y1="41.2" x2="751.4" y2="41.2"/>
  <line class="st3" x1="756.6" y1="83" x2="751.4" y2="83"/>
  <g class="st15">
    <rect class="st40" x="330.4" y="173.2" width="126.1" height="31.3"/>
  </g>
  <path class="st29" d="M379.9,184.6l-1.4-4.3h2.5l.6,2.3,1.8-2.3h2.8l-4,4.6-.6,2.4h-2.3l.7-2.7h0Z"/>
  <path class="st29" d="M393,183.3c0,1.1-.5,2.1-1.2,2.9s-1.8,1.2-2.9,1.2c-2.1,0-3.5-1.4-3.5-3.2s.5-2.1,1.2-2.9,1.8-1.2,2.9-1.2c2.1,0,3.5,1.4,3.5,3.2h0ZM390,184.9c.4-.4.6-.9.6-1.4,0-.7-.5-1.3-1.3-1.3s-.8.2-1,.4c-.4.4-.6.9-.6,1.4,0,.7.5,1.3,1.3,1.3s.8-.2,1-.4Z"/>
  <path class="st29" d="M393.8,184.3c0-1.1.4-2.1,1.2-2.9.8-.8,2-1.3,3.5-1.3s2.5.6,2.9,1.2l-1.5,1.5c-.4-.4-1-.6-1.6-.6s-1.2.2-1.5.6-.6.9-.6,1.4c0,.9.6,1.3,1.4,1.3s.5,0,.6-.1l.2-.8h-1.1l.4-1.5h3.4l-1,3.6c-.7.4-1.7.7-2.7.7-1.7,0-3.5-.9-3.5-3.1h0Z"/>
  <path class="st29" d="M405.3,180.3h2.3l1.1,7.1h-2.5v-.9h-2.6l-.6.9h-2.5l4.8-7.1h0ZM405.9,184.7l-.2-1.7-1.1,1.7h1.3Z"/>
  <path class="st29" d="M364.4,192.9l-1.2.3v-1s1.8-.5,1.8-.5h.8l-1.7,6.4h-1.1l1.4-5.2h0Z"/>
  <path class="st29" d="M366.5,196.4c0-1,.8-1.5,1.7-1.7-.5-.2-.8-.7-.8-1.2,0-.9.9-1.8,2.3-1.8s2.2.7,2.2,1.7-.6,1.4-1.5,1.6c.6.2,1,.7,1,1.4,0,1-1,1.9-2.6,1.9s-2.4-.7-2.4-1.8h0ZM370.4,196.3c0-.5-.5-.9-1.4-.9s-1.4.5-1.4,1,.5.9,1.3.9,1.4-.4,1.4-1h0ZM370.9,193.5c0-.5-.4-.9-1.2-.9s-1.2.4-1.2,1c0,.5.5.9,1.2.9s1.3-.4,1.3-1h0Z"/>
  <path class="st29" d="M374.4,191.8h1.1l-.7,2.6h3l.7-2.6h1.1l-1.7,6.3h-1.1l.7-2.7h-3l-.7,2.7h-1.1l1.7-6.3Z"/>
  <path class="st29" d="M382,192.9l-1.2.3v-1s1.8-.5,1.8-.5h.8l-1.7,6.4h-1.1l1.4-5.2h0Z"/>
  <path class="st29" d="M383.9,197.1l.8-.6c.4.5.9.8,1.6.8s1.5-.6,1.5-1.2-.5-1-1.3-1-.7.1-1,.3l-.6-.5,1-3h3.7l-.3,1h-2.7l-.5,1.5c.2,0,.5-.1.8-.1,1.2,0,2,.7,2,1.8s-.2,1.1-.7,1.5c-.5.5-1.2.8-2.1.8s-1.9-.5-2.3-1.1h0Z"/>
  <path class="st29" d="M390.6,194.8h2.7l-.3,1.1h-2.7l.3-1.1Z"/>
  <path class="st29" d="M395.9,192.9l-1.2.3v-1s1.8-.5,1.8-.5h.8l-1.7,6.4h-1.1l1.4-5.2h0Z"/>
  <path class="st29" d="M397.9,197.4l.7-.8c.4.4.8.6,1.4.6s1-.2,1.3-.6c.4-.4.6-.9.8-1.4-.3.3-.9.7-1.6.7-1.1,0-1.9-.7-1.9-1.8s.3-1.2.7-1.6,1.1-.8,1.9-.8,1.2.2,1.6.6.6,1,.6,1.9-.5,2.4-1.3,3.2-1.3.9-2.1.9-1.5-.3-2-.8h0ZM401.9,194.6c.2-.2.4-.6.4-.9s-.1-.5-.3-.7c-.2-.2-.5-.3-.9-.3s-.8.1-1,.4-.4.6-.4.9c0,.6.4,1,1.1,1s.8-.2,1-.4h0Z"/>
  <path class="st29" d="M405.8,191.8h1.1l-.7,2.6h3l.7-2.6h1.1l-1.7,6.3h-1.1l.7-2.7h-3l-.7,2.7h-1.1l1.7-6.3Z"/>
  <path class="st29" d="M417.5,194.2c0,1.1-.4,2.3-1.2,3.1s-1.3.9-2.1.9c-1.5,0-2.4-1-2.4-2.5s.4-2.3,1.2-3.1,1.3-.9,2.1-.9c1.5,0,2.4,1,2.4,2.5h0ZM415.5,196.7c.6-.6,1-1.6,1-2.4s-.5-1.5-1.3-1.5-.8.2-1.2.5c-.6.6-1,1.6-1,2.4s.5,1.5,1.3,1.5.8-.2,1.2-.5Z"/>
  <path class="st29" d="M424.5,194.2c0,1.1-.4,2.3-1.2,3.1s-1.3.9-2.1.9c-1.5,0-2.4-1-2.4-2.5s.4-2.3,1.2-3.1,1.3-.9,2.1-.9c1.5,0,2.4,1,2.4,2.5h0ZM422.4,196.7c.6-.6,1-1.6,1-2.4s-.5-1.5-1.3-1.5-.8.2-1.2.5c-.6.6-1,1.6-1,2.4s.5,1.5,1.3,1.5.8-.2,1.2-.5Z"/>
  <rect class="st6" x="330.4" y="173.2" width="126.1" height="31.3" rx="4.8" ry="4.8"/>
  <g class="st19">
    <rect class="st44" x="49.2" y="162.9" width="125.2" height="41.3"/>
  </g>
  <path class="st29" d="M64.4,179c0-1,.4-2.1,1.3-3,.7-.7,1.8-1.2,3.2-1.2s2.6.8,2.9,2l-2.1.9c-.2-.6-.6-.9-1.1-.9s-.9.2-1.2.5c-.4.4-.6.9-.6,1.4,0,.8.5,1.2,1.1,1.2s1-.3,1.4-.7l1.6,1.3c-.7.9-1.7,1.5-3.2,1.5s-3.3-1.2-3.3-3.1h0Z"/>
  <path class="st29" d="M75,179.9h-.6l-.5,2h-2.3l1.9-7h2.7c1.3,0,2.1.3,2.6.8s.6.9.6,1.5-.2,1.2-.7,1.7c-.3.3-.7.6-1.3.7l1,2.3h-2.5l-.8-2h0ZM75.7,178.2c.5,0,.8-.1,1-.3.1-.1.2-.3.2-.5s0-.3-.2-.4c-.1-.1-.4-.2-.7-.2h-.8l-.4,1.4h.9Z"/>
  <path class="st29" d="M87.6,177.9c0,1.1-.5,2.1-1.2,2.9-.7.7-1.8,1.2-2.9,1.2-2.1,0-3.5-1.4-3.5-3.2s.5-2.1,1.2-2.9,1.8-1.2,2.9-1.2c2.1,0,3.5,1.4,3.5,3.2ZM84.7,179.5c.4-.4.6-.9.6-1.4,0-.7-.4-1.3-1.3-1.3s-.8.2-1,.4-.6.9-.6,1.4c0,.7.4,1.3,1.3,1.3s.8-.2,1-.4Z"/>
  <path class="st29" d="M87.5,180.8l1.3-1.6c.8.7,1.6,1,2.4,1s.5-.1.5-.3-.1-.3-1.2-.7c-1.3-.5-1.9-.9-1.9-2s.2-1.1.7-1.6c.6-.6,1.4-.9,2.5-.9s2.4.4,3.1,1.1l-1.3,1.6c-.5-.4-1.3-.8-2-.8s-.5,0-.5.3.2.2,1.1.6c1.2.4,1.9.9,1.9,2s-.2,1.2-.7,1.6c-.5.5-1.4.9-2.5.9s-2.6-.5-3.5-1.3Z"/>
  <path class="st29" d="M94.5,180.8l1.3-1.6c.8.7,1.6,1,2.4,1s.5-.1.5-.3-.1-.3-1.2-.7c-1.3-.5-1.9-.9-1.9-2s.2-1.1.7-1.6c.6-.6,1.4-.9,2.5-.9s2.4.4,3.1,1.1l-1.3,1.6c-.5-.4-1.3-.8-2-.8s-.5,0-.5.3.2.2,1.1.6c1.2.4,1.9.9,1.9,2s-.2,1.2-.7,1.6c-.5.5-1.4.9-2.5.9s-2.6-.5-3.5-1.3Z"/>
  <path class="st29" d="M107.7,176.9h-2.1l.5-2h6.5l-.5,2h-2.1l-1.3,5h-2.3s1.3-5,1.3-5Z"/>
  <path class="st29" d="M115.2,179.9h-.6l-.5,2h-2.3l1.9-7h2.7c1.3,0,2.1.3,2.6.8s.6.9.6,1.5-.2,1.2-.7,1.7c-.3.3-.7.6-1.3.7l1,2.3h-2.5l-.8-2h0ZM116,178.2c.5,0,.8-.1,1-.3.1-.1.2-.3.2-.5s0-.3-.2-.4c-.1-.1-.4-.2-.7-.2h-.8l-.4,1.4h.9Z"/>
  <path class="st29" d="M123.7,174.8h2.3l1.1,7.1h-2.5v-.9h-2.6l-.6.9h-2.6s4.8-7.1,4.8-7.1ZM124.3,179.3l-.2-1.7-1.1,1.7h1.3Z"/>
  <path class="st29" d="M129.7,174.9h2.3l-1.9,7h-2.3l1.9-7Z"/>
  <path class="st29" d="M133.3,174.9h2.2l1.6,3.3.9-3.3h2.3l-1.9,7h-2.1l-1.7-3.5-.9,3.5h-2.3l1.9-7h0Z"/>
  <path class="st29" d="M141.6,174.9h2.3l-1.9,7h-2.3l1.9-7Z"/>
  <path class="st29" d="M145.2,174.9h2.2l1.6,3.3.9-3.3h2.3l-1.9,7h-2.1l-1.7-3.5-.9,3.5h-2.3l1.9-7h0Z"/>
  <path class="st29" d="M152.2,178.9c0-1.1.4-2.1,1.2-2.9s2-1.3,3.4-1.3,2.4.6,2.9,1.2l-1.5,1.5c-.4-.4-1-.6-1.6-.6s-1.2.2-1.6.6-.6.9-.6,1.4c0,.9.6,1.3,1.4,1.3s.4,0,.6-.1l.2-.8h-1.1l.4-1.5h3.4l-1,3.6c-.7.4-1.7.7-2.7.7-1.7,0-3.5-.9-3.5-3.1h0Z"/>
  <path class="st29" d="M80.7,187.7l-1.2.3v-1s1.8-.5,1.8-.5h.8l-1.7,6.3h-1.1l1.4-5.2h0Z"/>
  <path class="st29" d="M82.8,191.2c0-1,.8-1.5,1.7-1.7-.5-.2-.8-.7-.8-1.2,0-.9.8-1.8,2.3-1.8s2.2.7,2.2,1.7-.6,1.4-1.4,1.6c.6.2,1,.7,1,1.4,0,1-1,1.9-2.6,1.9s-2.4-.7-2.4-1.8h0ZM86.7,191.1c0-.5-.5-.9-1.3-.9s-1.4.5-1.4,1,.5.9,1.3.9,1.4-.4,1.4-1ZM87.2,188.3c0-.5-.4-.9-1.2-.9s-1.2.4-1.2,1c0,.5.5.9,1.2.9s1.3-.4,1.3-1h0Z"/>
  <path class="st29" d="M90.8,186.6h1.1l-.7,2.6h3l.7-2.6h1.1l-1.7,6.3h-1.1l.7-2.7h-3l-.7,2.7h-1.1l1.7-6.3h0Z"/>
  <path class="st29" d="M102.4,189c0,1.1-.4,2.3-1.2,3.1-.6.5-1.3.9-2.1.9-1.4,0-2.4-1-2.4-2.5s.4-2.3,1.2-3.1,1.3-.9,2.1-.9c1.4,0,2.3,1,2.3,2.5ZM100.3,191.5c.6-.6.9-1.6.9-2.4s-.5-1.5-1.3-1.5-.8.2-1.2.5c-.6.6-.9,1.6-.9,2.4s.5,1.5,1.3,1.5.8-.2,1.2-.5Z"/>
  <path class="st29" d="M109.4,189c0,1.1-.4,2.3-1.2,3.1-.6.5-1.3.9-2.1.9-1.4,0-2.4-1-2.4-2.5s.4-2.3,1.2-3.1,1.3-.9,2.1-.9c1.4,0,2.3,1,2.3,2.5ZM107.3,191.5c.6-.6.9-1.6.9-2.4s-.5-1.5-1.3-1.5-.8.2-1.2.5c-.6.6-.9,1.6-.9,2.4s.5,1.5,1.3,1.5.8-.2,1.2-.5Z"/>
  <path class="st29" d="M110.8,189.6h2.7l-.3,1.1h-2.7l.3-1.1Z"/>
  <path class="st29" d="M116.2,187.7l-1.2.3v-1s1.8-.5,1.8-.5h.8l-1.7,6.3h-1.1l1.4-5.2h0Z"/>
  <path class="st29" d="M118.2,192.2l.7-.8c.4.4.8.6,1.4.6s.9-.2,1.3-.6c.4-.4.7-.9.8-1.4-.3.3-.9.7-1.6.7-1.1,0-1.9-.7-1.9-1.8s.3-1.2.7-1.6c.5-.5,1.1-.8,1.9-.8s1.2.2,1.6.6.6,1,.6,1.9-.5,2.4-1.3,3.2c-.6.6-1.3.9-2.2.9s-1.5-.3-2-.8h0ZM122.2,189.4c.2-.2.4-.6.4-.9s-.1-.5-.3-.7c-.2-.2-.5-.3-.9-.3s-.8.1-1,.4-.4.6-.4.9c0,.6.4,1,1.2,1s.8-.2,1.1-.4h0Z"/>
  <path class="st29" d="M126.1,186.6h1.1l-.7,2.6h3l.7-2.6h1.1l-1.7,6.3h-1.1l.7-2.7h-3l-.7,2.7h-1.1l1.7-6.3h0Z"/>
  <path class="st29" d="M137.8,189c0,1.1-.4,2.3-1.2,3.1-.6.5-1.3.9-2.1.9-1.4,0-2.4-1-2.4-2.5s.4-2.3,1.2-3.1,1.3-.9,2.1-.9c1.4,0,2.4,1,2.4,2.5ZM135.7,191.5c.6-.6.9-1.6.9-2.4s-.5-1.5-1.3-1.5-.8.2-1.2.5c-.6.6-.9,1.6-.9,2.4s.5,1.5,1.3,1.5.8-.2,1.2-.5Z"/>
  <path class="st29" d="M144.8,189c0,1.1-.4,2.3-1.2,3.1-.6.5-1.3.9-2.1.9-1.4,0-2.4-1-2.4-2.5s.4-2.3,1.2-3.1,1.3-.9,2.1-.9c1.4,0,2.4,1,2.4,2.5ZM142.7,191.5c.6-.6.9-1.6.9-2.4s-.5-1.5-1.3-1.5-.8.2-1.2.5c-.6.6-.9,1.6-.9,2.4s.5,1.5,1.3,1.5.8-.2,1.2-.5Z"/>
  <rect class="st6" x="49.2" y="162.9" width="125.2" height="41.3" rx="4.8" ry="4.8"/>
  <g class="st17">
    <rect class="st38" x="330.5" y="31.9" width="126.1" height="30.4"/>
  </g>
  <path class="st29" d="M346.2,43c0-1,.4-2.1,1.3-3,.7-.7,1.8-1.2,3.2-1.2s2.6.8,2.9,2l-2.1.9c-.1-.6-.6-.8-1.1-.8s-.9.2-1.1.5c-.4.4-.6.9-.6,1.4,0,.8.5,1.2,1.1,1.2s1-.3,1.4-.7l1.6,1.3c-.7.9-1.7,1.5-3.2,1.5s-3.3-1.2-3.3-3.1Z"/>
  <path class="st29" d="M356.7,43.9h-.6l-.5,2h-2.3l1.9-7h2.7c1.3,0,2.1.3,2.6.8.4.4.5.9.5,1.5s-.2,1.2-.7,1.7c-.3.3-.7.5-1.3.7l1,2.3h-2.5l-.8-2h0ZM357.4,42.2c.5,0,.8-.1,1-.3.1-.1.2-.3.2-.5s0-.3-.1-.4c-.1-.1-.4-.2-.7-.2h-.8l-.4,1.4h.9,0Z"/>
  <path class="st29" d="M369.3,41.9c0,1.1-.5,2.2-1.2,2.9-.7.7-1.8,1.2-2.9,1.2-2.1,0-3.5-1.4-3.5-3.2s.5-2.2,1.2-2.9c.7-.7,1.8-1.2,2.9-1.2,2.1,0,3.5,1.4,3.5,3.2ZM366.4,43.5c.4-.4.6-.9.6-1.4,0-.7-.5-1.3-1.3-1.3s-.8.2-1,.4c-.4.4-.6.9-.6,1.4,0,.7.5,1.3,1.3,1.3s.8-.2,1-.4Z"/>
  <path class="st29" d="M369.2,44.8l1.3-1.6c.8.7,1.6,1,2.4,1s.5-.1.5-.3-.1-.3-1.1-.7c-1.3-.5-1.9-.9-1.9-2s.2-1.1.7-1.5c.5-.5,1.4-.9,2.5-.9s2.4.4,3.1,1l-1.3,1.6c-.5-.4-1.3-.8-2-.8s-.5,0-.5.3.1.2,1.1.6c1.2.4,2,.9,2,2s-.2,1.2-.7,1.6c-.5.5-1.4.9-2.5.9s-2.6-.5-3.5-1.3h0Z"/>
  <path class="st29" d="M376.2,44.8l1.3-1.6c.8.7,1.6,1,2.4,1s.5-.1.5-.3-.1-.3-1.1-.7c-1.3-.5-1.9-.9-1.9-2s.2-1.1.7-1.5c.5-.5,1.4-.9,2.5-.9s2.4.4,3.1,1l-1.3,1.6c-.5-.4-1.3-.8-2-.8s-.5,0-.5.3.1.2,1.1.6c1.2.4,2,.9,2,2s-.2,1.2-.7,1.6c-.5.5-1.4.9-2.5.9s-2.6-.5-3.5-1.3h0Z"/>
  <path class="st29" d="M389.5,40.9h-2.1l.5-2h6.5l-.5,2h-2.1l-1.4,5h-2.3l1.4-5Z"/>
  <path class="st29" d="M397,43.9h-.6l-.5,2h-2.3l1.9-7h2.7c1.3,0,2.1.3,2.6.8.4.4.5.9.5,1.5s-.2,1.2-.7,1.7c-.3.3-.7.5-1.3.7l1,2.3h-2.5l-.8-2h0ZM397.7,42.2c.5,0,.8-.1,1-.3.1-.1.2-.3.2-.5s0-.3-.1-.4c-.1-.1-.4-.2-.7-.2h-.8l-.4,1.4h.9,0Z"/>
  <path class="st29" d="M405.4,38.9h2.3l1.1,7h-2.5v-.9h-2.6l-.6.9h-2.5l4.8-7h0ZM406.1,43.3l-.2-1.7-1.1,1.7h1.3Z"/>
  <path class="st29" d="M411.4,38.9h2.3l-1.9,7h-2.3l1.9-7Z"/>
  <path class="st29" d="M415,38.9h2.2l1.6,3.3.9-3.3h2.3l-1.9,7h-2.1l-1.7-3.5-.9,3.5h-2.3l1.9-7Z"/>
  <path class="st29" d="M423.3,38.9h2.3l-1.9,7h-2.3l1.9-7Z"/>
  <path class="st29" d="M426.9,38.9h2.2l1.6,3.3.9-3.3h2.3l-1.9,7h-2.1l-1.7-3.5-.9,3.5h-2.3l1.9-7Z"/>
  <path class="st29" d="M434,42.9c0-1.1.4-2.1,1.2-2.9.8-.8,2-1.3,3.5-1.3s2.5.6,2.9,1.2l-1.5,1.5c-.4-.4-1-.6-1.6-.6s-1.2.2-1.5.6c-.4.4-.6.9-.6,1.5,0,.9.6,1.3,1.4,1.3s.5,0,.6-.1l.2-.8h-1.1l.4-1.5h3.4l-1,3.6c-.7.4-1.7.7-2.7.7-1.7,0-3.5-.9-3.5-3.1h0Z"/>
  <path class="st29" d="M364.8,50.8l-1.2.3v-1s1.8-.5,1.8-.5h.8l-1.7,6.3h-1.1l1.4-5.2h0Z"/>
  <path class="st29" d="M366.6,55l3.3-2.4c.6-.5,1-.8,1-1.3s-.4-.8-1-.8-1.1.3-1.6.8l-.7-.7c.6-.7,1.4-1.1,2.3-1.1s2,.7,2,1.7-.4,1.3-1.4,2.1l-2.3,1.7h2.9l-.3,1h-4.6l.2-.9h0Z"/>
  <path class="st29" d="M374.4,49.6h1.1l-.7,2.6h3l.7-2.6h1.1l-1.7,6.3h-1.1l.7-2.7h-3l-.7,2.7h-1.1l1.7-6.3Z"/>
  <path class="st29" d="M382,50.8l-1.2.3v-1s1.8-.5,1.8-.5h.8l-1.7,6.3h-1.1l1.4-5.2h0Z"/>
  <path class="st29" d="M383.8,54.9l.8-.7c.4.5.9.8,1.6.8s1.5-.6,1.5-1.2-.5-1-1.3-1-.7.1-1,.3l-.6-.5,1-3h3.7l-.3,1h-2.7l-.5,1.5c.2,0,.5-.1.8-.1,1.2,0,2,.7,2,1.8s-.2,1.1-.7,1.5c-.5.5-1.2.8-2.1.8s-1.9-.5-2.3-1.1h0Z"/>
  <path class="st29" d="M390.5,52.6h2.7l-.3,1.1h-2.7l.3-1.1Z"/>
  <path class="st29" d="M395.9,50.8l-1.2.3v-1s1.8-.5,1.8-.5h.8l-1.7,6.3h-1.1l1.4-5.2h0Z"/>
  <path class="st29" d="M397.6,54.8l.8-.6c.3.5.8.8,1.5.8s1.4-.5,1.4-1.1-.5-.9-1.4-.9h-.3v-.7c0,0,2.1-1.8,2.1-1.8h-2.7l.3-1h4.2l-.2.8-2.2,1.8c.9.1,1.5.6,1.5,1.6s-.2,1-.6,1.4c-.5.5-1.2.8-2,.8s-1.9-.5-2.3-1.2h0Z"/>
  <path class="st29" d="M405.5,49.6h1.1l-.7,2.6h3l.7-2.6h1.1l-1.7,6.3h-1.1l.7-2.7h-3l-.7,2.7h-1.1l1.7-6.3Z"/>
  <path class="st29" d="M417.2,52c0,1.1-.4,2.3-1.2,3.1-.5.5-1.3.9-2.1.9-1.5,0-2.4-1-2.4-2.5s.4-2.3,1.2-3.1c.5-.5,1.3-.9,2.1-.9,1.5,0,2.4,1,2.4,2.5h0ZM415.1,54.5c.6-.6,1-1.6,1-2.4s-.5-1.5-1.3-1.5-.8.2-1.2.5c-.6.6-1,1.6-1,2.4s.5,1.5,1.3,1.5.8-.2,1.2-.5Z"/>
  <path class="st29" d="M424.1,52c0,1.1-.4,2.3-1.2,3.1-.5.5-1.3.9-2.1.9-1.5,0-2.4-1-2.4-2.5s.4-2.3,1.2-3.1c.5-.5,1.3-.9,2.1-.9,1.5,0,2.4,1,2.4,2.5h0ZM422,54.5c.6-.6,1-1.6,1-2.4s-.5-1.5-1.3-1.5-.8.2-1.2.5c-.6.6-1,1.6-1,2.4s.5,1.5,1.3,1.5.8-.2,1.2-.5Z"/>
  <rect class="st6" x="330.5" y="31.9" width="126.1" height="30.4" rx="4.8" ry="4.8"/>
  <g class="st18">
    <rect class="st39" x="611.4" y="163" width="126.1" height="41.3"/>
  </g>
  <path class="st29" d="M627.2,179.5c0-1,.4-2.1,1.3-3,.7-.7,1.8-1.2,3.2-1.2s2.6.8,2.9,2l-2.1.9c-.2-.6-.6-.9-1.1-.9s-.9.2-1.2.5c-.4.4-.6.9-.6,1.4,0,.8.5,1.2,1.1,1.2s1-.3,1.4-.7l1.6,1.3c-.7.9-1.7,1.5-3.2,1.5s-3.3-1.2-3.3-3.1h0Z"/>
  <path class="st29" d="M637.7,180.4h-.6l-.5,2h-2.3l1.9-7h2.7c1.3,0,2.1.3,2.6.8.4.4.5.9.5,1.5s-.2,1.2-.7,1.7c-.3.3-.7.6-1.3.7l1,2.3h-2.5l-.8-2h0ZM638.4,178.7c.5,0,.8-.1,1-.3s.2-.3.2-.5,0-.3-.2-.4c-.1-.1-.4-.2-.7-.2h-.8l-.4,1.4h.9Z"/>
  <path class="st29" d="M650.3,178.4c0,1.1-.5,2.1-1.2,2.9s-1.8,1.2-2.9,1.2c-2.1,0-3.5-1.4-3.5-3.2s.5-2.1,1.2-2.9c.7-.7,1.8-1.2,2.9-1.2,2.1,0,3.5,1.4,3.5,3.2ZM647.4,180.1c.4-.4.6-.9.6-1.4,0-.7-.5-1.3-1.3-1.3s-.8.2-1,.4c-.4.4-.6.9-.6,1.4,0,.7.5,1.3,1.3,1.3s.8-.2,1-.4Z"/>
  <path class="st29" d="M650.2,181.3l1.3-1.6c.8.7,1.6,1,2.4,1s.5-.1.5-.3-.1-.3-1.2-.7c-1.3-.5-1.9-.9-1.9-2s.2-1.1.7-1.6c.5-.6,1.4-.9,2.5-.9s2.4.4,3.1,1.1l-1.3,1.6c-.5-.4-1.3-.8-2-.8s-.5,0-.5.3.2.2,1.1.6c1.2.4,2,.9,2,2s-.2,1.2-.7,1.6c-.5.5-1.4.9-2.5.9s-2.6-.5-3.5-1.3h0Z"/>
  <path class="st29" d="M657.2,181.3l1.3-1.6c.8.7,1.6,1,2.4,1s.5-.1.5-.3-.1-.3-1.2-.7c-1.3-.5-1.9-.9-1.9-2s.2-1.1.7-1.6c.5-.6,1.4-.9,2.5-.9s2.4.4,3.1,1.1l-1.3,1.6c-.5-.4-1.3-.8-2-.8s-.5,0-.5.3.2.2,1.1.6c1.2.4,2,.9,2,2s-.2,1.2-.7,1.6c-.5.5-1.4.9-2.5.9s-2.6-.5-3.5-1.3h0Z"/>
  <path class="st29" d="M670.4,177.4h-2.1l.5-2h6.5l-.5,2h-2.1l-1.3,5h-2.3l1.3-5Z"/>
  <path class="st29" d="M678,180.4h-.6l-.5,2h-2.3l1.9-7h2.7c1.3,0,2.1.3,2.6.8.4.4.5.9.5,1.5s-.2,1.2-.7,1.7c-.3.3-.7.6-1.3.7l1,2.3h-2.5l-.8-2h0ZM678.7,178.7c.5,0,.8-.1,1-.3s.2-.3.2-.5,0-.3-.2-.4c-.1-.1-.4-.2-.7-.2h-.8l-.4,1.4h.9Z"/>
  <path class="st29" d="M686.4,175.4h2.3l1.1,7.1h-2.5v-.9h-2.6l-.6.9h-2.5l4.8-7.1h0ZM687,179.8l-.2-1.7-1.1,1.7h1.3Z"/>
  <path class="st29" d="M692.3,175.4h2.3l-1.9,7h-2.3l1.9-7Z"/>
  <path class="st29" d="M696,175.4h2.2l1.6,3.3.9-3.3h2.3l-1.9,7h-2.1l-1.7-3.5-.9,3.5h-2.3l1.9-7h0Z"/>
  <path class="st29" d="M704.2,175.4h2.3l-1.9,7h-2.3l1.9-7Z"/>
  <path class="st29" d="M707.9,175.4h2.2l1.6,3.3.9-3.3h2.3l-1.9,7h-2.1l-1.7-3.5-.9,3.5h-2.3l1.9-7h0Z"/>
  <path class="st29" d="M714.9,179.4c0-1.1.4-2.1,1.2-2.9.8-.8,2-1.3,3.5-1.3s2.5.6,2.9,1.2l-1.5,1.5c-.4-.4-1-.6-1.6-.6s-1.2.2-1.5.6-.6.9-.6,1.4c0,.9.6,1.3,1.4,1.3s.5,0,.6-.1l.2-.8h-1.2l.4-1.5h3.4l-1,3.6c-.7.4-1.7.7-2.7.7-1.7,0-3.5-.9-3.5-3.1h0Z"/>
  <path class="st29" d="M643.4,187.2l-1.2.3v-.9s1.8-.5,1.8-.5h.8l-1.7,6.4h-1.1l1.4-5.2h0Z"/>
  <path class="st29" d="M645.6,190.7c0-1,.8-1.5,1.7-1.7-.5-.2-.8-.7-.8-1.2,0-.9.9-1.8,2.3-1.8s2.2.7,2.2,1.7-.6,1.4-1.5,1.6c.6.2,1,.7,1,1.4,0,1-1,1.9-2.6,1.9s-2.4-.7-2.4-1.8h0ZM649.4,190.6c0-.5-.5-.9-1.3-.9s-1.4.5-1.4,1,.5.9,1.3.9,1.4-.4,1.4-1h0ZM649.9,187.8c0-.5-.4-.9-1.2-.9s-1.2.4-1.2,1c0,.5.5.9,1.2.9s1.3-.4,1.3-1h0Z"/>
  <path class="st29" d="M653.5,186.1h1.1l-.7,2.6h3l.7-2.6h1.1l-1.7,6.3h-1.1l.7-2.7h-3l-.7,2.7h-1.1l1.7-6.3h0Z"/>
  <path class="st29" d="M665.2,188.5c0,1.1-.4,2.3-1.2,3.1-.5.5-1.3.9-2.1.9-1.5,0-2.4-1-2.4-2.5s.4-2.3,1.2-3.1c.5-.6,1.3-.9,2.1-.9,1.5,0,2.3,1,2.3,2.5h0ZM663.1,191c.6-.6,1-1.6,1-2.4s-.5-1.5-1.3-1.5-.8.2-1.2.5c-.6.6-1,1.6-1,2.4s.5,1.5,1.3,1.5.8-.2,1.2-.5Z"/>
  <path class="st29" d="M672.1,188.5c0,1.1-.4,2.3-1.2,3.1-.5.5-1.3.9-2.1.9-1.5,0-2.4-1-2.4-2.5s.4-2.3,1.2-3.1c.5-.6,1.3-.9,2.1-.9,1.5,0,2.3,1,2.3,2.5h0ZM670,191c.6-.6,1-1.6,1-2.4s-.5-1.5-1.3-1.5-.8.2-1.2.5c-.6.6-1,1.6-1,2.4s.5,1.5,1.3,1.5.8-.2,1.2-.5Z"/>
  <path class="st29" d="M673.5,189.1h2.7l-.3,1.1h-2.7l.3-1.1Z"/>
  <path class="st29" d="M678.9,187.2l-1.2.3v-.9s1.8-.5,1.8-.5h.8l-1.7,6.4h-1.1l1.4-5.2h0Z"/>
  <path class="st29" d="M680.9,191.7l.7-.8c.4.4.8.6,1.4.6s1-.2,1.3-.6c.4-.4.7-.9.8-1.4-.3.3-.9.7-1.6.7-1.1,0-1.9-.7-1.9-1.8s.3-1.2.7-1.6c.5-.5,1.1-.8,1.9-.8s1.2.2,1.6.6c.4.4.6,1,.6,1.9s-.5,2.4-1.3,3.2c-.6.6-1.3.9-2.2.9s-1.5-.3-2-.8h0ZM684.9,188.9c.2-.2.4-.6.4-.9s-.1-.5-.3-.7c-.2-.2-.5-.3-.9-.3s-.8.1-1,.4c-.2.2-.4.6-.4.9,0,.6.4,1,1.2,1s.8-.2,1-.4h0Z"/>
  <path class="st29" d="M688.8,186.1h1.1l-.7,2.6h3l.7-2.6h1.1l-1.7,6.3h-1.1l.7-2.7h-3l-.7,2.7h-1.1l1.7-6.3h0Z"/>
  <path class="st29" d="M700.5,188.5c0,1.1-.4,2.3-1.2,3.1-.5.5-1.3.9-2.1.9-1.5,0-2.4-1-2.4-2.5s.4-2.3,1.2-3.1c.5-.6,1.3-.9,2.1-.9,1.5,0,2.3,1,2.3,2.5h0ZM698.4,191c.6-.6,1-1.6,1-2.4s-.5-1.5-1.3-1.5-.8.2-1.2.5c-.6.6-1,1.6-1,2.4s.5,1.5,1.3,1.5.8-.2,1.2-.5Z"/>
  <path class="st29" d="M707.5,188.5c0,1.1-.4,2.3-1.2,3.1-.5.5-1.3.9-2.1.9-1.5,0-2.4-1-2.4-2.5s.4-2.3,1.2-3.1c.5-.6,1.3-.9,2.1-.9,1.5,0,2.3,1,2.3,2.5h0ZM705.4,191c.6-.6,1-1.6,1-2.4s-.5-1.5-1.3-1.5-.8.2-1.2.5c-.6.6-1,1.6-1,2.4s.5,1.5,1.3,1.5.8-.2,1.2-.5Z"/>
  <rect class="st6" x="611.4" y="163" width="126.1" height="41.3" rx="4.8" ry="4.8"/>
</svg>