<?xml version="1.0" encoding="UTF-8"?>
<svg id="Calque_2" data-name="Calque 2" xmlns="http://www.w3.org/2000/svg" viewBox="0 0 154.98 117.98">
  <defs>
    <style>
      .cls-1 {
        fill: #006935;
      }

      .cls-2 {
        fill: #2e9e42;
      }

      .cls-3 {
        fill: #9dd800;
      }
    </style>
  </defs>
  <g id="Calque_1-2" data-name="Calque 1">
    <path class="cls-3" d="M117.12,44.7c-6.11,0-11.62-.93-16.22-2.17-3.39-.91-5.4-4.4-4.49-7.79.91-3.39,4.4-5.4,7.79-4.49,6.25,1.68,12.49,2.15,18.57,1.4,7.71-.94,15.2-3.87,22.27-8.71,2.9-1.98,6.86-1.24,8.84,1.66s1.24,6.86-1.66,8.84c-12.51,8.55-24.68,11.26-35.09,11.26Z"/>
    <path class="cls-3" d="M117.12,76.74c-6.11,0-11.62-.93-16.22-2.17-3.39-.91-5.4-4.4-4.49-7.79.91-3.39,4.4-5.4,7.79-4.49,6.25,1.68,12.49,2.15,18.57,1.4,7.71-.94,15.2-3.87,22.27-8.71,2.9-1.98,6.86-1.24,8.84,1.66,1.98,2.9,1.24,6.86-1.66,8.84-12.51,8.55-24.68,11.26-35.09,11.26Z"/>
    <path class="cls-3" d="M117.12,108.79c-6.11,0-11.62-.93-16.22-2.17-3.39-.91-5.4-4.4-4.49-7.79.91-3.39,4.4-5.4,7.79-4.49,6.25,1.68,12.49,2.15,18.57,1.4,7.71-.94,15.2-3.87,22.27-8.71,2.9-1.98,6.86-1.24,8.84,1.66,1.98,2.9,1.24,6.86-1.66,8.84-12.51,8.55-24.68,11.26-35.09,11.26Z"/>
    <path class="cls-2" d="M77.42,117.98c-5.82,0-10.54-4.72-10.54-10.54V10.54c0-5.82,4.72-10.54,10.54-10.54s10.54,4.72,10.54,10.54v96.89c0,5.82-4.72,10.54-10.54,10.54Z"/>
    <circle class="cls-1" cx="28.66" cy="11.18" r="6.14" transform="translate(.49 23.54) rotate(-45)"/>
    <circle class="cls-1" cx="6.14" cy="12.65" r="6.14"/>
    <circle class="cls-1" cx="52.22" cy="20.81" r="6.14" transform="translate(13.01 61.09) rotate(-67.5)"/>
    <circle class="cls-1" cx="28.66" cy="43.23" r="6.14" transform="translate(-9.16 7.74) rotate(-13.28)"/>
    <circle class="cls-1" cx="6.14" cy="44.69" r="6.14"/>
    <circle class="cls-1" cx="52.22" cy="52.85" r="6.14" transform="translate(-10.74 13.41) rotate(-13.28)"/>
    <circle class="cls-1" cx="28.66" cy="75.27" r="6.14" transform="translate(-44.83 42.31) rotate(-45)"/>
    <circle class="cls-1" cx="6.14" cy="76.73" r="6.14"/>
    <circle class="cls-1" cx="52.22" cy="84.89" r="6.14" transform="translate(-46.19 100.65) rotate(-67.5)"/>
  </g>
</svg>