<?xml version="1.0" encoding="UTF-8"?>
<svg id="Calque_2" data-name="Calque 2" xmlns="http://www.w3.org/2000/svg" viewBox="0 0 127.3 40.1">
  <defs>
    <style>
      .cls-1, .cls-2, .cls-3 {
        stroke-width: 0px;
      }

      .cls-2 {
        fill: #b6b6b6;
      }

      .cls-3 {
        fill: #fff;
      }
    </style>
  </defs>
  <g id="Calque_1-2" data-name="Calque 1">
    <g>
      <path class="cls-2" d="m117.8,0H7.5c-.7,0-1.4.1-2,.2-.7.1-1.3.3-1.9.6s-1.2.7-1.6,1.2c-.5.5-.9,1-1.2,1.6s-.5,1.2-.6,1.9-.2,1.3-.2,2v25.1c0,.7.1,1.4.2,2,.1.7.3,1.3.6,1.9.3.6.7,1.2,1.2,1.6.5.5,1,.9,1.6,1.2s1.2.5,1.9.6,1.3.2,2,.2h112.3c.7,0,1.4-.1,2-.2.7-.1,1.3-.3,1.9-.6s1.2-.7,1.6-1.2c.5-.5.9-1,1.2-1.6.3-.6.5-1.2.6-1.9s.2-1.3.2-2V7.5c0-.7-.1-1.4-.2-2-.1-.7-.3-1.3-.6-1.9s-.7-1.2-1.2-1.6c-.5-.5-1-.9-1.6-1.2s-1.2-.5-1.9-.6c-.7-.1-1.3-.2-2-.2h-2Z"/>
      <path class="cls-1" d="m8.3,39.5h-.9c-.6,0-1.2,0-1.9-.2-.6-.1-1.2-.3-1.7-.6s-1-.6-1.4-1-.8-.9-1-1.4c-.3-.5-.4-1.1-.5-1.7-.1-.7-.2-1.4-.2-1.9V7.6c0-.5,0-1.2.2-1.9.1-.6.3-1.2.5-1.7.3-.5.6-1,1-1.4s.9-.8,1.4-1c.5-.3,1.1-.4,1.7-.5.7-.1,1.4-.2,1.9-.2h112.3c.5,0,1.2,0,1.9.2.6.1,1.2.3,1.7.6s1,.6,1.4,1,.8.9,1,1.4c.3.5.4,1.1.5,1.7.1.6.2,1.3.2,1.9v25.1c0,.6-.1,1.2-.2,1.9-.1.6-.3,1.2-.5,1.7-.3.5-.6,1-1,1.4s-.9.8-1.4,1c-.5.3-1.1.4-1.7.6-.6.1-1.3.1-1.9.2h-2l-109.4-.1Z"/>
    </g>
    <g>
      <g>
        <path class="cls-3" d="m24.8,20.5c0-2.8,2.3-4.1,2.4-4.2-1.3-1.9-3.3-2.2-4-2.2-1.7-.2-3.3,1-4.2,1s-2.2-1-3.6-1c-1.8,0-3.6,1.1-4.5,2.7-1.9,3.4-.5,8.3,1.4,11.1.9,1.3,2,2.8,3.5,2.8,1.4-.1,1.9-.9,3.6-.9s2.2.9,3.6.9c1.5,0,2.4-1.3,3.3-2.7,1.1-1.5,1.5-3,1.5-3.1-.1,0-3-1.1-3-4.4Z"/>
        <path class="cls-3" d="m22.1,12.3c.8-.9,1.3-2.2,1.1-3.5-1.1,0-2.5.8-3.2,1.7-.7.8-1.3,2.1-1.2,3.4,1.2.1,2.5-.7,3.3-1.6Z"/>
      </g>
      <g>
        <path class="cls-3" d="m35.8,14.8v-5.2h-1.9v-.9h4.7v.9h-1.9v5.2h-.9Z"/>
        <path class="cls-3" d="m42.9,13.6c-.2.8-.9,1.3-2,1.3-1.3,0-2.1-.9-2.1-2.3,0-1.5.8-2.4,2.1-2.4s2,.9,2,2.3v.3h-3.2v.1c0,.8.5,1.3,1.2,1.3.5,0,.9-.2,1.1-.6h.9Zm-3.1-1.5h2.3c0-.7-.5-1.2-1.1-1.2-.7.1-1.2.5-1.2,1.2Zm.6-2.6l1-1.4h1.1l-1.2,1.4h-.9Z"/>
        <path class="cls-3" d="m44.2,8.5h.9v6.3h-.9v-6.3Z"/>
        <path class="cls-3" d="m50.4,13.6c-.2.8-.9,1.3-2,1.3-1.3,0-2.1-.9-2.1-2.3,0-1.5.8-2.4,2.1-2.4s2,.9,2,2.3v.3h-3.2v.1c0,.8.5,1.3,1.2,1.3.5,0,.9-.2,1.1-.6h.9Zm-3.1-1.5h2.3c0-.7-.5-1.2-1.1-1.2-.7.1-1.2.5-1.2,1.2Zm.6-2.6l1-1.4h1.1l-1.2,1.4h-.9Z"/>
        <path class="cls-3" d="m54.7,11.8c-.1-.4-.5-.8-1.1-.8-.8,0-1.2.6-1.2,1.5,0,1,.5,1.6,1.2,1.6.6,0,1-.3,1.1-.7h.9c-.1.9-.8,1.5-1.9,1.5-1.3,0-2.1-.9-2.1-2.4s.8-2.3,2.1-2.3c1.1,0,1.8.7,1.9,1.6h-.9Z"/>
        <path class="cls-3" d="m56.7,8.5h.9v2.5h.1c.2-.5.7-.8,1.4-.8,1,0,1.6.6,1.6,1.7v2.9h-.9v-2.7c0-.7-.3-1.1-1-1.1s-1.1.5-1.1,1.2v2.7h-.9l-.1-6.4h0Z"/>
        <path class="cls-3" d="m61.8,13.5c0-.8.6-1.3,1.7-1.4l1.2-.1v-.4c0-.5-.3-.8-.9-.8-.5,0-.8.2-.9.5h-.9c.1-.8.8-1.3,1.9-1.3s1.8.6,1.8,1.5v3.1h-.9v-.6h-.1c-.3.5-.8.7-1.4.7-.9.2-1.5-.3-1.5-1.2Zm2.9-.3v-.4l-1.1.1c-.6,0-.9.3-.9.7s.4.6.8.6c.7,0,1.2-.5,1.2-1Z"/>
        <path class="cls-3" d="m67,10.3h.9v.7h.1c.1-.4.6-.8,1.2-.8h.4v.9c-.1,0-.3-.1-.5-.1-.7,0-1.2.4-1.2,1.1v2.7h-.9v-4.5Z"/>
        <path class="cls-3" d="m70.4,15.3h.9c.1.3.5.5,1.1.5.7,0,1.2-.4,1.2-1v-.9h-.1c-.3.5-.8.8-1.4.8-1.2,0-1.9-.9-1.9-2.3s.7-2.3,1.9-2.3c.6,0,1.2.3,1.4.8h.1v-.7h.9v4.6c0,1-.8,1.7-2.1,1.7-1.2.1-1.9-.4-2-1.2Zm3.1-2.8c0-.9-.5-1.5-1.2-1.5-.8,0-1.2.6-1.2,1.5s.4,1.5,1.2,1.5,1.2-.6,1.2-1.5Z"/>
        <path class="cls-3" d="m79.7,13.6c-.2.8-.9,1.3-2,1.3-1.3,0-2.1-.9-2.1-2.3,0-1.5.8-2.4,2.1-2.4s2,.9,2,2.3v.3h-3.2v.1c0,.8.5,1.3,1.2,1.3.5,0,.9-.2,1.1-.6h.9Zm-3.2-1.5h2.3c0-.7-.5-1.2-1.1-1.2-.7.1-1.1.5-1.2,1.2Z"/>
        <path class="cls-3" d="m80.9,10.3h.9v.7h.1c.1-.4.6-.8,1.2-.8h.4v.9c-.1,0-.3-.1-.5-.1-.7,0-1.2.4-1.2,1.1v2.7h-.9v-4.5Z"/>
        <path class="cls-3" d="m86.7,12.6c0-1.4.7-2.3,1.9-2.3.6,0,1.1.3,1.4.8h.1v-2.6h.9v6.3h-.9v-.7h-.1c-.3.5-.8.8-1.4.8-1.1,0-1.9-.9-1.9-2.3Zm1,0c0,1,.5,1.5,1.2,1.5.8,0,1.2-.6,1.2-1.5s-.5-1.5-1.2-1.5c-.8-.1-1.2.5-1.2,1.5Z"/>
        <path class="cls-3" d="m92.2,13.5c0-.8.6-1.3,1.7-1.4l1.2-.1v-.4c0-.5-.3-.8-.9-.8-.5,0-.8.2-.9.5h-.9c.1-.8.8-1.3,1.9-1.3s1.8.6,1.8,1.5v3.1h-.9v-.6h-.1c-.3.5-.8.7-1.4.7-.9.2-1.5-.3-1.5-1.2Zm2.9-.3v-.4l-1.1.1c-.6,0-.9.3-.9.7s.4.6.8.6c.7,0,1.2-.5,1.2-1Z"/>
        <path class="cls-3" d="m97.4,10.3h.9v.7h.1c.2-.5.7-.8,1.4-.8,1,0,1.6.6,1.6,1.7v2.9h-.9v-2.7c0-.7-.3-1.1-1-1.1s-1.1.4-1.1,1.2v2.7h-.9l-.1-4.6h0Z"/>
        <path class="cls-3" d="m104.3,10.2c1,0,1.7.5,1.8,1.3h-.9c-.1-.3-.4-.5-.9-.5s-.9.2-.9.6c0,.3.2.4.7.6l.8.2c.9.2,1.3.6,1.3,1.2,0,.9-.8,1.4-1.9,1.4s-1.8-.5-1.9-1.3h.9c.1.3.4.6,1,.6s1-.3,1-.6-.2-.4-.7-.6l-.8-.2c-.9-.2-1.3-.6-1.3-1.3,0-.8.8-1.4,1.8-1.4Z"/>
      </g>
    </g>
    <g>
      <path class="cls-3" d="m35.3,18.2h1.9v12.5h-1.9v-12.5Z"/>
      <path class="cls-3" d="m39.4,22.8l1-4.6h1.8l-1.2,4.6h-1.6Z"/>
      <path class="cls-3" d="m49.4,27.4h-4.8l-1.1,3.4h-2l4.5-12.5h2.1l4.5,12.5h-2.1l-1.1-3.4Zm-4.3-1.6h3.8l-1.9-5.5h-.1l-1.8,5.5Z"/>
      <path class="cls-3" d="m62.3,26.2c0,2.8-1.5,4.7-3.8,4.7-1.3,0-2.3-.6-2.9-1.6h0v4.5h-1.9v-12.1h1.8v1.5h0c.5-1,1.6-1.6,2.9-1.6,2.4-.1,3.9,1.8,3.9,4.6Zm-1.9,0c0-1.8-1-3.1-2.4-3.1s-2.4,1.2-2.4,3.1c0,1.8,1,3.1,2.4,3.1,1.5,0,2.4-1.3,2.4-3.1Z"/>
      <path class="cls-3" d="m72.4,26.2c0,2.8-1.5,4.7-3.8,4.7-1.3,0-2.3-.6-2.9-1.6h0v4.5h-1.9v-12.1h1.8v1.5h0c.5-1,1.6-1.6,2.9-1.6,2.4-.1,3.9,1.8,3.9,4.6Zm-1.9,0c0-1.8-1-3.1-2.4-3.1s-2.4,1.2-2.4,3.1c0,1.8,1,3.1,2.4,3.1s2.4-1.3,2.4-3.1Z"/>
      <path class="cls-3" d="m79,27.3c.1,1.2,1.3,2.1,3,2.1,1.6,0,2.7-.8,2.7-1.9,0-1-.7-1.6-2.3-2l-1.6-.4c-2.3-.6-3.4-1.6-3.4-3.4,0-2.2,1.9-3.6,4.6-3.6s4.5,1.5,4.5,3.6h-1.9c-.1-1.2-1.1-2-2.7-2-1.5,0-2.5.8-2.5,1.9,0,.9.7,1.4,2.3,1.8l1.4.3c2.6.6,3.6,1.6,3.6,3.5,0,2.3-1.9,3.8-4.8,3.8s-4.7-1.4-4.8-3.7h1.9Z"/>
      <path class="cls-3" d="m90.8,19.5v2.2h1.7v1.5h-1.7v5c0,.8.3,1.1,1.1,1.1h.6v1.5c-.2.1-.6.1-1,.1-1.8,0-2.6-.7-2.6-2.5v-5.2h-1.3v-1.5h1.3v-2.2h1.9Z"/>
      <path class="cls-3" d="m93.5,26.2c0-2.9,1.7-4.7,4.3-4.7s4.3,1.8,4.3,4.7-1.7,4.7-4.3,4.7-4.3-1.8-4.3-4.7Zm6.7,0c0-2-.9-3.1-2.4-3.1s-2.4,1.2-2.4,3.1c0,2,.9,3.1,2.4,3.1s2.4-1.1,2.4-3.1Z"/>
      <path class="cls-3" d="m103.7,21.6h1.8v1.6h0c.3-1,1.1-1.6,2.2-1.6.3,0,.5,0,.6.1v1.8c-.1-.1-.5-.1-.8-.1-1.2,0-2,.8-2,2.1v5.4h-1.9l.1-9.3h0Z"/>
      <path class="cls-3" d="m117,28.1c-.3,1.7-1.9,2.8-3.9,2.8-2.7,0-4.3-1.8-4.3-4.6s1.7-4.7,4.2-4.7,4.1,1.7,4.1,4.5v.6h-6.4v.1c0,1.6,1,2.6,2.5,2.6,1,0,1.9-.5,2.1-1.3h1.7Zm-6.3-2.8h4.6c0-1.4-.9-2.3-2.2-2.3-1.4,0-2.3,1-2.4,2.3Z"/>
    </g>
  </g>
</svg>