<?xml version="1.0" encoding="UTF-8"?>
<svg id="Calque_2" data-name="Calque 2" xmlns="http://www.w3.org/2000/svg" viewBox="0 0 127.3 40.1">
  <defs>
    <style>
      .cls-1, .cls-2, .cls-3, .cls-4, .cls-5, .cls-6, .cls-7 {
        stroke-width: 0px;
      }

      .cls-2 {
        fill: #f8bd00;
      }

      .cls-3 {
        fill: #2e9f43;
      }

      .cls-4 {
        fill: #587dbd;
      }

      .cls-5 {
        fill: #e33628;
      }

      .cls-6 {
        fill: #b6b6b6;
      }

      .cls-7 {
        fill: #fff;
      }
    </style>
  </defs>
  <g id="Calque_1-2" data-name="Calque 1">
    <g>
      <path class="cls-6" d="m117.8,0H7.5c-.7,0-1.4.1-2,.2-.7.1-1.3.3-1.9.6s-1.2.7-1.6,1.2c-.5.5-.9,1-1.2,1.6s-.5,1.2-.6,1.9-.2,1.3-.2,2v25.1c0,.7.1,1.4.2,2,.1.7.3,1.3.6,1.9.3.6.7,1.2,1.2,1.6.5.5,1,.9,1.6,1.2s1.2.5,1.9.6,1.3.2,2,.2h112.3c.7,0,1.4-.1,2-.2.7-.1,1.3-.3,1.9-.6s1.2-.7,1.6-1.2c.5-.5.9-1,1.2-1.6.3-.6.5-1.2.6-1.9s.2-1.3.2-2V7.5c0-.7-.1-1.4-.2-2-.1-.7-.3-1.3-.6-1.9s-.7-1.2-1.2-1.6c-.5-.5-1-.9-1.6-1.2s-1.2-.5-1.9-.6c-.7-.1-1.3-.2-2-.2h-2Z"/>
      <path class="cls-1" d="m8.3,39.4h-.9c-.6,0-1.2,0-1.9-.2-.6-.1-1.2-.3-1.7-.6s-1-.6-1.4-1-.8-.9-1-1.4c-.3-.5-.4-1.1-.5-1.7-.1-.7-.2-1.4-.2-1.9V7.5c0-.5,0-1.2.2-1.9.1-.6.3-1.2.5-1.7.3-.5.6-1,1-1.4s.9-.8,1.4-1c.5-.3,1.1-.4,1.7-.5.7-.1,1.4-.2,1.9-.2h112.3c.5,0,1.2,0,1.9.2.6.1,1.2.3,1.7.6s1,.6,1.4,1,.8.9,1,1.4c.3.5.4,1.1.5,1.7.1.6.2,1.3.2,1.9v25.1c0,.6-.1,1.2-.2,1.9-.1.6-.3,1.2-.5,1.7-.3.5-.6,1-1,1.4s-.9.8-1.4,1c-.5.3-1.1.4-1.7.6-.6.1-1.3.1-1.9.2h-2l-109.4-.1Z"/>
    </g>
    <g>
      <g>
        <path class="cls-7" d="m64.2,21.6c-2.2,0-4,1.7-4,4s1.8,4,4,4,4-1.7,4-4-1.8-4-4-4m0,6.4c-1.2,0-2.3-1-2.3-2.4s1.1-2.4,2.3-2.4,2.3,1,2.3,2.4-1.1,2.4-2.3,2.4m-8.8-6.4c-2.2,0-4,1.7-4,4s1.8,4,4,4,4-1.7,4-4-1.8-4-4-4m0,6.4c-1.2,0-2.3-1-2.3-2.4s1.1-2.4,2.3-2.4,2.3,1,2.3,2.4-1.1,2.4-2.3,2.4m-10.5-5.2v1.7h4.1c-.1,1-.4,1.7-.9,2.1-.6.6-1.5,1.2-3.2,1.2-2.5,0-4.5-2-4.5-4.5s2-4.5,4.5-4.5c1.4,0,2.3.5,3.1,1.2l1.2-1.2c-1-1-2.4-1.7-4.3-1.7-3.4,0-6.3,2.8-6.3,6.2s2.9,6.2,6.3,6.2c1.9,0,3.3-.6,4.4-1.8,1.1-1.1,1.5-2.7,1.5-4,0-.4,0-.8-.1-1.1h-5.8v.2h0Zm42.8,1.3c-.3-.9-1.4-2.6-3.4-2.6-2.1,0-3.8,1.6-3.8,4s1.7,4,4,4c1.8,0,2.9-1.1,3.3-1.8l-1.4-.9c-.5.7-1.1,1.1-2,1.1s-1.5-.4-1.9-1.2l5.4-2.2-.2-.4Zm-5.4,1.4c0-1.6,1.2-2.3,2.1-2.3.7,0,1.3.3,1.5.9l-3.6,1.4Zm-4.4,3.8h1.8v-11.8h-1.8v11.8Zm-2.9-6.8h0c-.5-.5-1.2-.9-2.2-.9-2,0-3.9,1.8-3.9,4s1.8,4,3.9,4c1,0,1.7-.4,2.1-.9h.1v.6c0,1.5-.8,2.4-2.1,2.4-1.1,0-1.8-.8-2-1.4l-1.5.6c.4,1.1,1.6,2.4,3.6,2.4,2.1,0,3.8-1.2,3.8-4.2v-7.2h-1.7l-.1.6h0Zm-2,5.5c-1.2,0-2.2-1-2.2-2.4s1-2.5,2.2-2.5,2.1,1,2.1,2.5c0,1.4-.9,2.4-2.1,2.4m23-10.5h-4.2v11.8h1.8v-4.5h2.5c2,0,3.9-1.4,3.9-3.7s-2-3.6-4-3.6m.1,5.7h-2.5v-4h2.5c1.3,0,2.1,1.1,2.1,2-.1.9-.8,2-2.1,2m10.8-1.7c-1.3,0-2.6.6-3.1,1.8l1.6.7c.3-.7,1-.9,1.6-.9.9,0,1.8.5,1.9,1.5v.1c-.3-.2-1-.5-1.8-.5-1.7,0-3.4.9-3.4,2.7,0,1.6,1.4,2.6,2.9,2.6,1.2,0,1.8-.5,2.2-1.2h.1v.9h1.7v-4.5c-.1-2-1.6-3.2-3.7-3.2m-.2,6.5c-.6,0-1.4-.3-1.4-1,0-.9,1-1.3,1.9-1.3.8,0,1.1.2,1.6.4-.1,1.1-1,1.9-2.1,1.9m10-6.2l-2,5.1h-.1l-2.1-5.1h-1.9l3.1,7.2-1.8,4h1.8l4.8-11.1-1.8-.1h0Zm-15.8,7.5h1.8v-11.8h-1.8v11.8Z"/>
        <path class="cls-5" d="m19.4,19.4l-10.1,10.7h0c.3,1.2,1.4,2,2.6,2,.5,0,1-.1,1.4-.4h0l11.3-6.5-5.2-5.8Z"/>
        <path class="cls-2" d="m29.6,17.5h0l-4.9-2.8-5.5,4.9,5.5,5.5,4.9-2.8c.9-.5,1.4-1.4,1.4-2.4s-.6-1.9-1.4-2.4"/>
        <path class="cls-4" d="m9.3,9.8c-.1.2-.1.5-.1.7v18.9c0,.2,0,.5.1.7l10.4-10.4-10.4-9.9Z"/>
        <path class="cls-3" d="m19.5,19.9l5.2-5.2-11.3-6.6c-.4-.2-.9-.4-1.4-.4-1.3,0-2.3.9-2.6,2h0l10.1,10.2Z"/>
      </g>
      <path class="cls-7" d="m39.3,7.5h1.9c.6,0,1.1.1,1.6.4.5.2.8.6,1,1s.4,1,.4,1.5c0,.6-.1,1.1-.4,1.5-.2.4-.6.8-1,1-.5.2-1,.4-1.6.4h-1.9v-5.8Zm1.9,5.1c.7,0,1.2-.2,1.6-.6.4-.4.6-.9.6-1.5,0-.7-.2-1.2-.6-1.5-.4-.4-.9-.6-1.6-.6h-1v4.2h1Z"/>
      <path class="cls-7" d="m45.4,7.5h.9v5.9h-.9v-5.9Z"/>
      <path class="cls-7" d="m48.2,13.1c-.4-.3-.7-.7-.8-1.2l.9-.3c.1.3.2.6.5.8.2.2.5.3.8.3s.5-.1.8-.2c.2-.2.3-.4.3-.6s-.1-.5-.3-.6c-.2-.2-.5-.3-.9-.5l-.4-.1c-.4-.1-.7-.3-1-.6s-.4-.6-.4-1c0-.3.1-.6.2-.8.2-.2.4-.4.7-.6.3-.1.6-.2,1-.2.5,0,.9.1,1.2.4.3.2.5.5.6.8l-.8.3c-.1-.2-.2-.4-.3-.5-.2-.1-.4-.2-.7-.2s-.5.1-.7.2c-.2.1-.3.3-.3.5s.1.4.3.5c.2.1.4.3.8.4l.4.1c.5.2.9.4,1.2.7.3.3.4.7.4,1.1s-.1.7-.3,1c-.2.3-.4.5-.7.6-.3.1-.6.2-.9.2-.8-.1-1.3-.2-1.6-.5Z"/>
      <path class="cls-7" d="m52.6,7.5h2c.4,0,.7.1,1,.2.3.2.5.4.7.6.2.3.3.6.3.9s-.1.7-.3.9c-.2.3-.4.5-.7.6-.3.2-.6.2-1,.2h-1.1v2.3h-.9v-5.7Zm2.1,2.8c.3,0,.5-.1.7-.3s.3-.4.3-.7-.1-.5-.3-.7c-.2-.2-.4-.3-.7-.3h-1.1v1.9l1.1.1h0Z"/>
      <path class="cls-7" d="m58.8,13.1c-.5-.3-.8-.6-1.1-1.1s-.4-1-.4-1.5c0-.6.1-1.1.4-1.5.3-.5.6-.8,1.1-1.1s1-.4,1.6-.4,1.1.1,1.5.4c.5.3.8.6,1.1,1.1.3.5.4,1,.4,1.5,0,.6-.1,1.1-.4,1.5-.3.5-.6.8-1.1,1.1s-1,.4-1.5.4c-.6,0-1.1-.1-1.6-.4Zm2.7-.7c.3-.2.6-.5.8-.8s.3-.7.3-1.1-.1-.8-.3-1.1c-.2-.3-.4-.6-.8-.8-.3-.2-.7-.3-1.1-.3s-.8.1-1.1.3c-.3.2-.6.5-.8.8-.2.3-.3.7-.3,1.1s.1.8.3,1.1c.2.3.4.6.8.8.3.2.7.3,1.1.3s.7-.1,1.1-.3Z"/>
      <path class="cls-7" d="m64.6,7.5h1.1l2.7,4.3h0v-4.3h.9v5.9h-.9l-2.8-4.5h0v4.5h-.9l-.1-5.9h0Z"/>
      <path class="cls-7" d="m70.7,7.5h.9v5.9h-.9v-5.9Z"/>
      <path class="cls-7" d="m73.1,7.5h2.2c.3,0,.6.1.9.2.3.1.5.3.6.6.2.2.2.5.2.8s-.1.5-.2.8c-.1.2-.3.4-.6.5h0c.3.1.6.3.7.5.2.2.3.5.3.9,0,.3-.1.6-.3.9-.2.2-.4.4-.7.6-.3.1-.6.2-.9.2h-2.3l.1-6h0Zm2.2,2.5c.3,0,.5-.1.7-.3s.2-.4.2-.6-.1-.4-.2-.6c-.2-.2-.4-.2-.6-.2h-1.3v1.6l1.2.1h0Zm.1,2.6c.3,0,.5-.1.7-.3s.3-.4.3-.6-.1-.4-.3-.6c-.2-.2-.4-.3-.7-.3h-1.4v1.8h1.4Z"/>
      <path class="cls-7" d="m78.4,7.5h.9v5h2.5v.9h-3.4v-5.9Z"/>
      <path class="cls-7" d="m82.8,7.5h3.6v.9h-2.7v1.7h2.4v.9h-2.4v1.7h2.7v.9h-3.6v-6.1Z"/>
      <path class="cls-7" d="m89.8,13.1c-.4-.3-.7-.7-.8-1.2l.9-.3c.1.3.2.6.5.8.2.2.5.3.8.3s.5-.1.8-.2c.2-.2.3-.4.3-.6s-.1-.5-.3-.6c-.2-.2-.5-.3-.9-.5l-.4-.1c-.4-.1-.7-.3-1-.6s-.4-.6-.4-1c0-.3.1-.6.2-.8.2-.2.4-.4.7-.6.3-.1.6-.2,1-.2.5,0,.9.1,1.2.4.3.2.5.5.6.8l-.8.3c-.1-.2-.2-.4-.3-.5-.2-.1-.4-.2-.7-.2s-.5.1-.7.2c-.2.1-.3.3-.3.5s.1.4.3.5c.2.1.4.3.8.4l.4.1c.5.2.9.4,1.2.7.3.3.4.7.4,1.1s-.1.7-.3,1c-.2.3-.4.5-.7.6-.3.1-.6.2-.9.2-.7-.1-1.2-.2-1.6-.5Z"/>
      <path class="cls-7" d="m95.2,13.3c-.3-.2-.6-.5-.8-.8-.2-.4-.3-.8-.3-1.3v-3.6h.9v3.7c0,.4.1.8.3,1.1.2.3.6.4,1,.4s.8-.1,1-.4c.2-.3.3-.6.3-1.1v-3.7h.9v3.6c0,.5-.1.9-.3,1.2-.2.4-.4.6-.8.8-.3.2-.7.3-1.2.3-.2,0-.6-.1-1-.2Z"/>
      <path class="cls-7" d="m100,7.5h2.1c.4,0,.7.1,1,.2.3.2.5.4.7.6.2.3.3.6.3.9,0,.4-.1.7-.4,1s-.6.5-1,.6h0l1.6,2.3h-1l-1.6-2.3h-.7v2.3h-.9l-.1-5.6h0Zm2.1,2.8c.3,0,.5-.1.7-.3s.3-.4.3-.7-.1-.5-.3-.7-.4-.3-.7-.3h-1.2v1.9l1.2.1h0Z"/>
    </g>
  </g>
</svg>