<?xml version="1.0" encoding="UTF-8"?>
<svg id="Calque_2" data-name="Calque 2" xmlns="http://www.w3.org/2000/svg" viewBox="0 0 161.6 118.84">
  <defs>
    <style>
      .cls-1 {
        fill: #006935;
      }

      .cls-2 {
        fill: #2e9e42;
      }

      .cls-3 {
        fill: #a6c236;
      }
    </style>
  </defs>
  <g id="Calque_1-2" data-name="Calque 1">
    <path class="cls-3" d="M156.92,36.29c-2.99-7.08-7.28-13.43-12.73-18.88-5.45-5.45-11.81-9.74-18.88-12.73-7.33-3.1-15.12-4.67-23.13-4.67s-15.8,1.57-23.13,4.67c-7.08,2.99-13.43,7.28-18.88,12.73-4.07,4.07-7.48,8.63-10.2,13.63,0,0,0,0,0,0-.52.92-.81,1.98-.81,3.11,0,3.51,2.84,6.35,6.35,6.35,2.42,0,4.53-1.36,5.6-3.36,0,0,0,0,0,0,7.91-14.55,23.33-24.43,41.06-24.43,25.79,0,46.71,20.91,46.71,46.71s-20.91,46.71-46.71,46.71c-23.67,0-43.22-17.6-46.29-40.43h-12.81c.61,5.8,2.06,11.45,4.35,16.86,2.99,7.08,7.28,13.43,12.73,18.88,5.45,5.45,11.81,9.74,18.88,12.73,7.33,3.1,15.12,4.67,23.13,4.67s15.8-1.57,23.13-4.67c7.08-2.99,13.43-7.28,18.88-12.73,5.45-5.45,9.74-11.81,12.73-18.88,3.1-7.33,4.67-15.12,4.67-23.13s-1.57-15.8-4.67-23.13Z"/>
    <path class="cls-2" d="M73.13,71.74c1.59,3.77,3.87,7.15,6.77,10.05,2.9,2.9,6.28,5.18,10.05,6.77,3.91,1.65,8.05,2.49,12.32,2.49s8.41-.84,12.32-2.49c3.77-1.59,7.15-3.87,10.05-6.77,2.9-2.9,5.18-6.28,6.77-10.05,1.65-3.91,2.49-8.05,2.49-12.32s-.84-8.41-2.49-12.32c-1.59-3.77-3.87-7.15-6.77-10.05-2.9-2.9-6.28-5.18-10.05-6.77-3.85-1.63-7.92-2.46-12.12-2.49-.07,0-.13,0-.2,0-3.51,0-6.35,2.84-6.35,6.35s2.78,6.29,6.24,6.35c0,0,0,.01,0,.02,10.39.03,18.95,8.37,19.03,18.76.08,10.48-8.36,19.01-18.82,19.07-8.31.04-15.37-5.21-17.96-12.64h-13.15c.42,2.06,1.04,4.08,1.87,6.04Z"/>
    <path class="cls-1" d="M71.26,65.7h31.63c3.55,0,6.42-2.91,6.36-6.47-.06-3.49-2.98-6.25-6.46-6.25h-59.88c-1.12,0-2.19-.44-2.98-1.23l-8.38-8.38c-2.48-2.48-6.51-2.48-8.99,0-2.48,2.48-2.48,6.51,0,8.99.23.23.07.62-.26.62-1.17,0-2.3-.47-3.13-1.29l-8.32-8.32c-2.48-2.48-6.51-2.48-8.99,0-2.48,2.48-2.48,6.51,0,8.99l6.21,6.21c.46.46.46,1.2,0,1.66l-6.23,6.28c-2.47,2.49-2.46,6.52.03,8.99,1.24,1.23,2.86,1.84,4.48,1.84,1.64,0,3.27-.63,4.51-1.88l8.52-8.58c.74-.75,1.76-1.17,2.82-1.17.42,0,.63.5.33.8-2.47,2.49-2.46,6.52.03,8.99,1.24,1.23,2.86,1.84,4.48,1.84,1.64,0,3.27-.63,4.51-1.88l8.45-8.51c.79-.8,1.87-1.24,2.99-1.24h28.26Z"/>
  </g>
</svg>