<?xml version="1.0" encoding="UTF-8"?>
<svg id="Calque_2" data-name="Calque 2" xmlns="http://www.w3.org/2000/svg" viewBox="0 0 145.55 118.84">
  <defs>
    <style>
      .cls-1 {
        fill: #006935;
      }

      .cls-2 {
        fill: #2e9e42;
      }

      .cls-3 {
        fill: #9dd800;
      }
    </style>
  </defs>
  <g id="Calque_1-2" data-name="Calque 1">
    <path class="cls-1" d="M86.13,12.72c25.79,0,46.71,20.91,46.71,46.71s-20.91,46.71-46.71,46.71-46.71-20.91-46.71-46.71S60.34,12.72,86.13,12.72M86.13,0c-8.02,0-15.8,1.57-23.13,4.67-7.08,2.99-13.43,7.28-18.88,12.73-5.45,5.45-9.74,11.81-12.73,18.88-3.1,7.33-4.67,15.12-4.67,23.13s1.57,15.8,4.67,23.13c2.99,7.08,7.28,13.43,12.73,18.88,5.45,5.45,11.81,9.74,18.88,12.73,7.33,3.1,15.12,4.67,23.13,4.67s15.8-1.57,23.13-4.67c7.08-2.99,13.43-7.28,18.88-12.73,5.45-5.45,9.74-11.81,12.73-18.88,3.1-7.33,4.67-15.12,4.67-23.13s-1.57-15.8-4.67-23.13c-2.99-7.08-7.28-13.43-12.73-18.88-5.45-5.45-11.81-9.74-18.88-12.73-7.33-3.1-15.12-4.67-23.13-4.67h0Z"/>
    <path class="cls-3" d="M14.49,106.83c2.36,3.5,5,6.83,7.86,9.94,1.21,1.31,2.91,2.06,4.69,2.06h0c5.54,0,8.42-6.59,4.67-10.67-11.79-12.83-18.99-29.95-18.99-48.75S19.91,23.5,31.71,10.67c3.75-4.08.88-10.67-4.67-10.67h0c-1.78,0-3.48.75-4.69,2.06-2.86,3.12-5.5,6.45-7.86,9.94-3.06,4.53-5.69,9.38-7.82,14.41C2.24,36.88,0,47.98,0,59.42s2.24,22.54,6.67,33.01c2.13,5.03,4.76,9.87,7.82,14.41Z"/>
    <path class="cls-2" d="M103.47,78.67c-1.32,0-2.65-.41-3.79-1.26l-17.34-12.89c-1.61-1.2-2.56-3.09-2.56-5.1v-27.55c0-3.51,2.85-6.36,6.36-6.36s6.36,2.85,6.36,6.36v24.36l14.78,10.99c2.82,2.1,3.4,6.08,1.31,8.9-1.25,1.68-3.17,2.56-5.11,2.56Z"/>
  </g>
</svg>